<mxfile host="app.diagrams.net" agent="Mozilla/5.0 (Windows NT 10.0; Win64; x64; rv:133.0) Gecko/20100101 Firefox/133.0" version="26.0.3">
  <diagram name="Page-1" id="F0N_6h5iVv7ym3Z60n2f">
    <mxGraphModel grid="0" page="1" gridSize="10" guides="1" tooltips="1" connect="1" arrows="1" fold="1" pageScale="1" pageWidth="827" pageHeight="1169" math="0" shadow="0">
      <root>
        <mxCell id="0" />
        <mxCell id="1" parent="0" />
        <mxCell id="2IloE4qeFaF7d8HB6xgV-1" value="&lt;div&gt;Branch Librarian&lt;/div&gt;&lt;div&gt;&lt;br&gt;&lt;/div&gt;" style="shape=umlActor;verticalLabelPosition=bottom;verticalAlign=top;html=1;outlineConnect=0;" vertex="1" parent="1">
          <mxGeometry x="41" y="27" width="30" height="60" as="geometry" />
        </mxCell>
        <mxCell id="2IloE4qeFaF7d8HB6xgV-2" value="Web Application" style="rounded=0;whiteSpace=wrap;html=1;" vertex="1" parent="1">
          <mxGeometry x="160" y="31" width="120" height="60" as="geometry" />
        </mxCell>
        <mxCell id="2IloE4qeFaF7d8HB6xgV-3" value="ApiGateway" style="rounded=0;whiteSpace=wrap;html=1;" vertex="1" parent="1">
          <mxGeometry x="325" y="31" width="120" height="60" as="geometry" />
        </mxCell>
        <mxCell id="2IloE4qeFaF7d8HB6xgV-4" value="&lt;div&gt;UserService:&lt;/div&gt;&lt;div&gt;Auth&lt;br&gt;&lt;/div&gt;" style="rounded=0;whiteSpace=wrap;html=1;" vertex="1" parent="1">
          <mxGeometry x="494" y="31" width="120" height="60" as="geometry" />
        </mxCell>
        <mxCell id="2IloE4qeFaF7d8HB6xgV-5" value="Inventory Service : StockController" style="rounded=0;whiteSpace=wrap;html=1;" vertex="1" parent="1">
          <mxGeometry x="660" y="31" width="120" height="60" as="geometry" />
        </mxCell>
        <mxCell id="2IloE4qeFaF7d8HB6xgV-6" value="Database" style="rounded=0;whiteSpace=wrap;html=1;" vertex="1" parent="1">
          <mxGeometry x="2116" y="31" width="120" height="60" as="geometry" />
        </mxCell>
        <mxCell id="2IloE4qeFaF7d8HB6xgV-7" value="&lt;div&gt;Inventory Service : StockRepository&lt;br&gt;&lt;/div&gt;" style="rounded=0;whiteSpace=wrap;html=1;" vertex="1" parent="1">
          <mxGeometry x="988" y="31" width="120" height="60" as="geometry" />
        </mxCell>
        <mxCell id="2IloE4qeFaF7d8HB6xgV-8" value="&lt;div&gt;Inventory Service : StockService&lt;br&gt;&lt;/div&gt;" style="rounded=0;whiteSpace=wrap;html=1;" vertex="1" parent="1">
          <mxGeometry x="824" y="31" width="120" height="60" as="geometry" />
        </mxCell>
        <mxCell id="2IloE4qeFaF7d8HB6xgV-9" value="" style="endArrow=none;dashed=1;html=1;rounded=0;" edge="1" parent="1" target="2IloE4qeFaF7d8HB6xgV-1">
          <mxGeometry width="50" height="50" relative="1" as="geometry">
            <mxPoint x="46" y="3468" as="sourcePoint" />
            <mxPoint x="666" y="341" as="targetPoint" />
          </mxGeometry>
        </mxCell>
        <mxCell id="2IloE4qeFaF7d8HB6xgV-10" value="" style="endArrow=none;dashed=1;html=1;rounded=0;" edge="1" parent="1" source="6aNFFvRFKAyDfRnZi1tQ-11">
          <mxGeometry width="50" height="50" relative="1" as="geometry">
            <mxPoint x="203" y="2329" as="sourcePoint" />
            <mxPoint x="222" y="91" as="targetPoint" />
          </mxGeometry>
        </mxCell>
        <mxCell id="2IloE4qeFaF7d8HB6xgV-11" value="" style="endArrow=none;dashed=1;html=1;rounded=0;exitX=0.164;exitY=0.998;exitDx=0;exitDy=0;exitPerimeter=0;" edge="1" parent="1" source="6aNFFvRFKAyDfRnZi1tQ-17">
          <mxGeometry width="50" height="50" relative="1" as="geometry">
            <mxPoint x="381.6399999999999" y="606.8019999999999" as="sourcePoint" />
            <mxPoint x="387" y="94" as="targetPoint" />
          </mxGeometry>
        </mxCell>
        <mxCell id="2IloE4qeFaF7d8HB6xgV-12" value="" style="endArrow=none;dashed=1;html=1;rounded=0;" edge="1" parent="1" source="6aNFFvRFKAyDfRnZi1tQ-9">
          <mxGeometry width="50" height="50" relative="1" as="geometry">
            <mxPoint x="556" y="2332" as="sourcePoint" />
            <mxPoint x="556" y="93" as="targetPoint" />
          </mxGeometry>
        </mxCell>
        <mxCell id="2IloE4qeFaF7d8HB6xgV-13" value="" style="endArrow=none;dashed=1;html=1;rounded=0;" edge="1" parent="1" source="6aNFFvRFKAyDfRnZi1tQ-138">
          <mxGeometry width="50" height="50" relative="1" as="geometry">
            <mxPoint x="710" y="3475" as="sourcePoint" />
            <mxPoint x="722" y="91" as="targetPoint" />
          </mxGeometry>
        </mxCell>
        <mxCell id="2IloE4qeFaF7d8HB6xgV-14" value="" style="endArrow=none;dashed=1;html=1;rounded=0;entryX=0.5;entryY=1;entryDx=0;entryDy=0;" edge="1" parent="1" target="2IloE4qeFaF7d8HB6xgV-8">
          <mxGeometry width="50" height="50" relative="1" as="geometry">
            <mxPoint x="879" y="3474" as="sourcePoint" />
            <mxPoint x="886" y="151" as="targetPoint" />
          </mxGeometry>
        </mxCell>
        <mxCell id="2IloE4qeFaF7d8HB6xgV-15" value="" style="endArrow=none;dashed=1;html=1;rounded=0;" edge="1" parent="1" source="6aNFFvRFKAyDfRnZi1tQ-40">
          <mxGeometry width="50" height="50" relative="1" as="geometry">
            <mxPoint x="1032" y="2343.714285714286" as="sourcePoint" />
            <mxPoint x="1048" y="93" as="targetPoint" />
          </mxGeometry>
        </mxCell>
        <mxCell id="2IloE4qeFaF7d8HB6xgV-16" value="" style="endArrow=none;dashed=1;html=1;rounded=0;" edge="1" parent="1" source="6aNFFvRFKAyDfRnZi1tQ-26">
          <mxGeometry width="50" height="50" relative="1" as="geometry">
            <mxPoint x="1902" y="2317" as="sourcePoint" />
            <mxPoint x="1902" y="91" as="targetPoint" />
          </mxGeometry>
        </mxCell>
        <mxCell id="2IloE4qeFaF7d8HB6xgV-17" value="" style="endArrow=classic;html=1;rounded=0;" edge="1" parent="1" target="6aNFFvRFKAyDfRnZi1tQ-11">
          <mxGeometry width="50" height="50" relative="1" as="geometry">
            <mxPoint x="56" y="149" as="sourcePoint" />
            <mxPoint x="223" y="149" as="targetPoint" />
          </mxGeometry>
        </mxCell>
        <mxCell id="2IloE4qeFaF7d8HB6xgV-18" value="Access Stock Control Page" style="edgeLabel;html=1;align=center;verticalAlign=middle;resizable=0;points=[];" connectable="0" vertex="1" parent="2IloE4qeFaF7d8HB6xgV-17">
          <mxGeometry x="0.2814" y="2" relative="1" as="geometry">
            <mxPoint x="-25" y="-8" as="offset" />
          </mxGeometry>
        </mxCell>
        <mxCell id="2IloE4qeFaF7d8HB6xgV-19" value="" style="endArrow=classic;html=1;rounded=0;" edge="1" parent="1">
          <mxGeometry width="50" height="50" relative="1" as="geometry">
            <mxPoint x="220" y="197" as="sourcePoint" />
            <mxPoint x="384" y="197" as="targetPoint" />
          </mxGeometry>
        </mxCell>
        <mxCell id="2IloE4qeFaF7d8HB6xgV-20" value="{GET} GetAllMediaItems" style="edgeLabel;html=1;align=center;verticalAlign=middle;resizable=0;points=[];" connectable="0" vertex="1" parent="2IloE4qeFaF7d8HB6xgV-19">
          <mxGeometry x="-0.0488" y="-4" relative="1" as="geometry">
            <mxPoint y="-21" as="offset" />
          </mxGeometry>
        </mxCell>
        <mxCell id="2IloE4qeFaF7d8HB6xgV-21" value="" style="endArrow=classic;html=1;rounded=0;entryX=0;entryY=0;entryDx=0;entryDy=5;entryPerimeter=0;" edge="1" parent="1" target="6aNFFvRFKAyDfRnZi1tQ-9">
          <mxGeometry width="50" height="50" relative="1" as="geometry">
            <mxPoint x="386" y="234" as="sourcePoint" />
            <mxPoint x="542" y="234" as="targetPoint" />
          </mxGeometry>
        </mxCell>
        <mxCell id="2IloE4qeFaF7d8HB6xgV-23" value="Authenticate request" style="edgeLabel;html=1;align=center;verticalAlign=middle;resizable=0;points=[];" connectable="0" vertex="1" parent="2IloE4qeFaF7d8HB6xgV-21">
          <mxGeometry x="-0.0595" y="-2" relative="1" as="geometry">
            <mxPoint x="1" y="-17" as="offset" />
          </mxGeometry>
        </mxCell>
        <mxCell id="2IloE4qeFaF7d8HB6xgV-40" value="&lt;div&gt;Inventory Service:&lt;/div&gt;&lt;div&gt;MediaModelService&lt;br&gt;&lt;/div&gt;" style="rounded=0;whiteSpace=wrap;html=1;" vertex="1" parent="1">
          <mxGeometry x="1388" y="31" width="120" height="60" as="geometry" />
        </mxCell>
        <mxCell id="2IloE4qeFaF7d8HB6xgV-41" value="" style="endArrow=none;dashed=1;html=1;rounded=0;" edge="1" parent="1" source="6aNFFvRFKAyDfRnZi1tQ-30">
          <mxGeometry width="50" height="50" relative="1" as="geometry">
            <mxPoint x="2178" y="2329" as="sourcePoint" />
            <mxPoint x="2178" y="96" as="targetPoint" />
          </mxGeometry>
        </mxCell>
        <mxCell id="2IloE4qeFaF7d8HB6xgV-64" value="&lt;div&gt;Inventory Service : MediaModelController&lt;br&gt;&lt;/div&gt;" style="rounded=0;whiteSpace=wrap;html=1;" vertex="1" parent="1">
          <mxGeometry x="1183" y="31" width="154" height="60" as="geometry" />
        </mxCell>
        <mxCell id="2IloE4qeFaF7d8HB6xgV-65" value="" style="endArrow=none;dashed=1;html=1;rounded=0;" edge="1" parent="1" source="6aNFFvRFKAyDfRnZi1tQ-1">
          <mxGeometry width="50" height="50" relative="1" as="geometry">
            <mxPoint x="1249" y="2343" as="sourcePoint" />
            <mxPoint x="1256" y="93" as="targetPoint" />
          </mxGeometry>
        </mxCell>
        <mxCell id="11tJ-tszYIpVk4KUVbmc-1" value="InventoryService: MediaModelRepository" style="rounded=0;whiteSpace=wrap;html=1;" vertex="1" parent="1">
          <mxGeometry x="1534" y="31" width="137" height="60" as="geometry" />
        </mxCell>
        <mxCell id="11tJ-tszYIpVk4KUVbmc-2" value="" style="endArrow=none;dashed=1;html=1;rounded=0;" edge="1" parent="1" source="6aNFFvRFKAyDfRnZi1tQ-3">
          <mxGeometry width="50" height="50" relative="1" as="geometry">
            <mxPoint x="1461" y="2335" as="sourcePoint" />
            <mxPoint x="1449" y="91" as="targetPoint" />
          </mxGeometry>
        </mxCell>
        <mxCell id="11tJ-tszYIpVk4KUVbmc-3" value="" style="endArrow=none;dashed=1;html=1;rounded=0;exitX=0.765;exitY=0.999;exitDx=0;exitDy=0;exitPerimeter=0;entryX=0.437;entryY=0.972;entryDx=0;entryDy=0;entryPerimeter=0;" edge="1" parent="1" source="6aNFFvRFKAyDfRnZi1tQ-5" target="11tJ-tszYIpVk4KUVbmc-1">
          <mxGeometry width="50" height="50" relative="1" as="geometry">
            <mxPoint x="1602.5999999999997" y="2337.9080000000004" as="sourcePoint" />
            <mxPoint x="1585.41" y="-59" as="targetPoint" />
          </mxGeometry>
        </mxCell>
        <mxCell id="11tJ-tszYIpVk4KUVbmc-4" value="&lt;div&gt;BranchService : BranchController&lt;/div&gt;" style="rounded=0;whiteSpace=wrap;html=1;" vertex="1" parent="1">
          <mxGeometry x="1696" y="31" width="120" height="60" as="geometry" />
        </mxCell>
        <mxCell id="11tJ-tszYIpVk4KUVbmc-5" value="" style="endArrow=none;dashed=1;html=1;rounded=0;" edge="1" parent="1" source="6aNFFvRFKAyDfRnZi1tQ-24">
          <mxGeometry width="50" height="50" relative="1" as="geometry">
            <mxPoint x="1757" y="2326" as="sourcePoint" />
            <mxPoint x="1757" y="93" as="targetPoint" />
          </mxGeometry>
        </mxCell>
        <mxCell id="11tJ-tszYIpVk4KUVbmc-6" value="BranchService:&lt;br&gt;BranchService" style="rounded=0;whiteSpace=wrap;html=1;" vertex="1" parent="1">
          <mxGeometry x="1842" y="31" width="120" height="60" as="geometry" />
        </mxCell>
        <mxCell id="11tJ-tszYIpVk4KUVbmc-7" value="&lt;div&gt;BranchService:&lt;/div&gt;&lt;div&gt;BranchRepository&lt;/div&gt;" style="rounded=0;whiteSpace=wrap;html=1;" vertex="1" parent="1">
          <mxGeometry x="1979" y="31" width="120" height="60" as="geometry" />
        </mxCell>
        <mxCell id="11tJ-tszYIpVk4KUVbmc-8" value="" style="endArrow=none;dashed=1;html=1;rounded=0;" edge="1" parent="1" source="6aNFFvRFKAyDfRnZi1tQ-28">
          <mxGeometry width="50" height="50" relative="1" as="geometry">
            <mxPoint x="2041" y="2329" as="sourcePoint" />
            <mxPoint x="2041" y="96" as="targetPoint" />
          </mxGeometry>
        </mxCell>
        <mxCell id="11tJ-tszYIpVk4KUVbmc-62" value="" style="endArrow=none;dashed=1;html=1;rounded=0;" edge="1" parent="1" source="6aNFFvRFKAyDfRnZi1tQ-20">
          <mxGeometry width="50" height="50" relative="1" as="geometry">
            <mxPoint x="369" y="2335" as="sourcePoint" />
            <mxPoint x="384" y="575" as="targetPoint" />
          </mxGeometry>
        </mxCell>
        <mxCell id="WJYO6susdfTsPlZlmV2k-1" value="" style="endArrow=classic;html=1;rounded=0;entryX=0;entryY=0.044;entryDx=0;entryDy=0;entryPerimeter=0;" edge="1" parent="1" target="6aNFFvRFKAyDfRnZi1tQ-1">
          <mxGeometry width="50" height="50" relative="1" as="geometry">
            <mxPoint x="392" y="313" as="sourcePoint" />
            <mxPoint x="1254" y="313" as="targetPoint" />
          </mxGeometry>
        </mxCell>
        <mxCell id="WJYO6susdfTsPlZlmV2k-2" value="Proxy request" style="edgeLabel;html=1;align=center;verticalAlign=middle;resizable=0;points=[];" connectable="0" vertex="1" parent="WJYO6susdfTsPlZlmV2k-1">
          <mxGeometry x="-0.0595" y="-2" relative="1" as="geometry">
            <mxPoint x="-332" y="-15" as="offset" />
          </mxGeometry>
        </mxCell>
        <mxCell id="WJYO6susdfTsPlZlmV2k-3" value="" style="endArrow=classic;html=1;rounded=0;" edge="1" parent="1">
          <mxGeometry width="50" height="50" relative="1" as="geometry">
            <mxPoint x="1261" y="338" as="sourcePoint" />
            <mxPoint x="1442" y="340" as="targetPoint" />
          </mxGeometry>
        </mxCell>
        <mxCell id="WJYO6susdfTsPlZlmV2k-4" value="Calls GetAllMediaItems()" style="edgeLabel;html=1;align=center;verticalAlign=middle;resizable=0;points=[];" connectable="0" vertex="1" parent="WJYO6susdfTsPlZlmV2k-3">
          <mxGeometry x="-0.0595" y="-2" relative="1" as="geometry">
            <mxPoint x="1" y="-17" as="offset" />
          </mxGeometry>
        </mxCell>
        <mxCell id="WJYO6susdfTsPlZlmV2k-7" value="" style="endArrow=classic;html=1;rounded=0;" edge="1" parent="1">
          <mxGeometry width="50" height="50" relative="1" as="geometry">
            <mxPoint x="1449" y="355" as="sourcePoint" />
            <mxPoint x="1586" y="355" as="targetPoint" />
          </mxGeometry>
        </mxCell>
        <mxCell id="WJYO6susdfTsPlZlmV2k-8" value="Calls GetAllMediaItems()" style="edgeLabel;html=1;align=center;verticalAlign=middle;resizable=0;points=[];" connectable="0" vertex="1" parent="WJYO6susdfTsPlZlmV2k-7">
          <mxGeometry x="-0.0595" y="-2" relative="1" as="geometry">
            <mxPoint x="1" y="-17" as="offset" />
          </mxGeometry>
        </mxCell>
        <mxCell id="WJYO6susdfTsPlZlmV2k-11" value="" style="endArrow=classic;html=1;rounded=0;entryX=0;entryY=0;entryDx=0;entryDy=5;entryPerimeter=0;" edge="1" parent="1" target="6aNFFvRFKAyDfRnZi1tQ-30">
          <mxGeometry width="50" height="50" relative="1" as="geometry">
            <mxPoint x="1596" y="378" as="sourcePoint" />
            <mxPoint x="2178" y="375" as="targetPoint" />
          </mxGeometry>
        </mxCell>
        <mxCell id="WJYO6susdfTsPlZlmV2k-12" value="SELECT all items in &lt;br&gt;MediaModels table" style="edgeLabel;html=1;align=center;verticalAlign=middle;resizable=0;points=[];" connectable="0" vertex="1" parent="WJYO6susdfTsPlZlmV2k-11">
          <mxGeometry x="-0.0595" y="-2" relative="1" as="geometry">
            <mxPoint x="-195" y="-22" as="offset" />
          </mxGeometry>
        </mxCell>
        <mxCell id="WJYO6susdfTsPlZlmV2k-13" value="" style="endArrow=classic;html=1;rounded=0;dashed=1;" edge="1" parent="1">
          <mxGeometry width="50" height="50" relative="1" as="geometry">
            <mxPoint x="2176" y="418" as="sourcePoint" />
            <mxPoint x="1596" y="418" as="targetPoint" />
          </mxGeometry>
        </mxCell>
        <mxCell id="WJYO6susdfTsPlZlmV2k-14" value="Return (List&amp;lt;MediaModel&amp;gt;) " style="edgeLabel;html=1;align=center;verticalAlign=middle;resizable=0;points=[];" connectable="0" vertex="1" parent="WJYO6susdfTsPlZlmV2k-13">
          <mxGeometry x="-0.0595" y="-2" relative="1" as="geometry">
            <mxPoint x="-220" y="-11" as="offset" />
          </mxGeometry>
        </mxCell>
        <mxCell id="WJYO6susdfTsPlZlmV2k-15" value="" style="endArrow=classic;html=1;rounded=0;dashed=1;" edge="1" parent="1">
          <mxGeometry width="50" height="50" relative="1" as="geometry">
            <mxPoint x="1592" y="443" as="sourcePoint" />
            <mxPoint x="1451" y="443" as="targetPoint" />
          </mxGeometry>
        </mxCell>
        <mxCell id="WJYO6susdfTsPlZlmV2k-16" value="Return (List&amp;lt;MediaModel&amp;gt;) " style="edgeLabel;html=1;align=center;verticalAlign=middle;resizable=0;points=[];" connectable="0" vertex="1" parent="WJYO6susdfTsPlZlmV2k-15">
          <mxGeometry x="-0.0595" y="-2" relative="1" as="geometry">
            <mxPoint x="1" y="-11" as="offset" />
          </mxGeometry>
        </mxCell>
        <mxCell id="WJYO6susdfTsPlZlmV2k-18" value="" style="endArrow=classic;html=1;rounded=0;dashed=1;" edge="1" parent="1">
          <mxGeometry width="50" height="50" relative="1" as="geometry">
            <mxPoint x="1448" y="465" as="sourcePoint" />
            <mxPoint x="1261" y="465" as="targetPoint" />
          </mxGeometry>
        </mxCell>
        <mxCell id="WJYO6susdfTsPlZlmV2k-19" value="Return (List&amp;lt;MediaModel&amp;gt;) " style="edgeLabel;html=1;align=center;verticalAlign=middle;resizable=0;points=[];" connectable="0" vertex="1" parent="WJYO6susdfTsPlZlmV2k-18">
          <mxGeometry x="-0.0595" y="-2" relative="1" as="geometry">
            <mxPoint x="1" y="-11" as="offset" />
          </mxGeometry>
        </mxCell>
        <mxCell id="WJYO6susdfTsPlZlmV2k-20" value="" style="endArrow=classic;html=1;rounded=0;dashed=1;" edge="1" parent="1">
          <mxGeometry width="50" height="50" relative="1" as="geometry">
            <mxPoint x="1250" y="495" as="sourcePoint" />
            <mxPoint x="392" y="495" as="targetPoint" />
          </mxGeometry>
        </mxCell>
        <mxCell id="WJYO6susdfTsPlZlmV2k-21" value="Return (List&amp;lt;MediaModel&amp;gt; as JSON) " style="edgeLabel;html=1;align=center;verticalAlign=middle;resizable=0;points=[];" connectable="0" vertex="1" parent="WJYO6susdfTsPlZlmV2k-20">
          <mxGeometry x="-0.0595" y="-2" relative="1" as="geometry">
            <mxPoint x="306" y="-10" as="offset" />
          </mxGeometry>
        </mxCell>
        <mxCell id="WJYO6susdfTsPlZlmV2k-24" value="" style="endArrow=classic;html=1;rounded=0;dashed=1;" edge="1" parent="1">
          <mxGeometry width="50" height="50" relative="1" as="geometry">
            <mxPoint x="383" y="518" as="sourcePoint" />
            <mxPoint x="221" y="518" as="targetPoint" />
          </mxGeometry>
        </mxCell>
        <mxCell id="WJYO6susdfTsPlZlmV2k-25" value="Return (JSON) " style="edgeLabel;html=1;align=center;verticalAlign=middle;resizable=0;points=[];" connectable="0" vertex="1" parent="WJYO6susdfTsPlZlmV2k-24">
          <mxGeometry x="-0.0595" y="-2" relative="1" as="geometry">
            <mxPoint x="-6" y="-10" as="offset" />
          </mxGeometry>
        </mxCell>
        <mxCell id="WJYO6susdfTsPlZlmV2k-26" value="" style="endArrow=classic;html=1;rounded=0;dashed=1;" edge="1" parent="1">
          <mxGeometry width="50" height="50" relative="1" as="geometry">
            <mxPoint x="217" y="543" as="sourcePoint" />
            <mxPoint x="55" y="543" as="targetPoint" />
          </mxGeometry>
        </mxCell>
        <mxCell id="WJYO6susdfTsPlZlmV2k-27" value="Displays media cards" style="edgeLabel;html=1;align=center;verticalAlign=middle;resizable=0;points=[];" connectable="0" vertex="1" parent="WJYO6susdfTsPlZlmV2k-26">
          <mxGeometry x="-0.0595" y="-2" relative="1" as="geometry">
            <mxPoint x="-4" y="-17" as="offset" />
          </mxGeometry>
        </mxCell>
        <mxCell id="WJYO6susdfTsPlZlmV2k-28" value="" style="endArrow=classic;html=1;rounded=0;" edge="1" parent="1">
          <mxGeometry width="50" height="50" relative="1" as="geometry">
            <mxPoint x="216" y="624" as="sourcePoint" />
            <mxPoint x="380" y="624" as="targetPoint" />
          </mxGeometry>
        </mxCell>
        <mxCell id="WJYO6susdfTsPlZlmV2k-29" value="{GET} GetAllBranches" style="edgeLabel;html=1;align=center;verticalAlign=middle;resizable=0;points=[];" connectable="0" vertex="1" parent="WJYO6susdfTsPlZlmV2k-28">
          <mxGeometry x="-0.0488" y="-4" relative="1" as="geometry">
            <mxPoint y="-21" as="offset" />
          </mxGeometry>
        </mxCell>
        <mxCell id="WJYO6susdfTsPlZlmV2k-30" value="" style="endArrow=classic;html=1;rounded=0;" edge="1" parent="1" source="6aNFFvRFKAyDfRnZi1tQ-20">
          <mxGeometry width="50" height="50" relative="1" as="geometry">
            <mxPoint x="385" y="634" as="sourcePoint" />
            <mxPoint x="553" y="634" as="targetPoint" />
          </mxGeometry>
        </mxCell>
        <mxCell id="WJYO6susdfTsPlZlmV2k-31" value="Authenticate request" style="edgeLabel;html=1;align=center;verticalAlign=middle;resizable=0;points=[];" connectable="0" vertex="1" parent="WJYO6susdfTsPlZlmV2k-30">
          <mxGeometry x="-0.0595" y="-2" relative="1" as="geometry">
            <mxPoint x="1" y="-17" as="offset" />
          </mxGeometry>
        </mxCell>
        <mxCell id="WJYO6susdfTsPlZlmV2k-34" value="" style="endArrow=classic;html=1;rounded=0;" edge="1" parent="1">
          <mxGeometry width="50" height="50" relative="1" as="geometry">
            <mxPoint x="385" y="687" as="sourcePoint" />
            <mxPoint x="1760" y="687" as="targetPoint" />
          </mxGeometry>
        </mxCell>
        <mxCell id="WJYO6susdfTsPlZlmV2k-35" value="Proxy request" style="edgeLabel;html=1;align=center;verticalAlign=middle;resizable=0;points=[];" connectable="0" vertex="1" parent="WJYO6susdfTsPlZlmV2k-34">
          <mxGeometry x="-0.0595" y="-2" relative="1" as="geometry">
            <mxPoint x="-564" y="-12" as="offset" />
          </mxGeometry>
        </mxCell>
        <mxCell id="WJYO6susdfTsPlZlmV2k-36" value="" style="endArrow=classic;html=1;rounded=0;" edge="1" parent="1">
          <mxGeometry width="50" height="50" relative="1" as="geometry">
            <mxPoint x="1757" y="702" as="sourcePoint" />
            <mxPoint x="1900" y="702" as="targetPoint" />
          </mxGeometry>
        </mxCell>
        <mxCell id="WJYO6susdfTsPlZlmV2k-37" value="Call GetAllBranches" style="edgeLabel;html=1;align=center;verticalAlign=middle;resizable=0;points=[];" connectable="0" vertex="1" parent="WJYO6susdfTsPlZlmV2k-36">
          <mxGeometry x="-0.0595" y="-2" relative="1" as="geometry">
            <mxPoint x="5" y="-12" as="offset" />
          </mxGeometry>
        </mxCell>
        <mxCell id="WJYO6susdfTsPlZlmV2k-38" value="" style="endArrow=classic;html=1;rounded=0;" edge="1" parent="1">
          <mxGeometry width="50" height="50" relative="1" as="geometry">
            <mxPoint x="1903" y="723" as="sourcePoint" />
            <mxPoint x="2039" y="723" as="targetPoint" />
          </mxGeometry>
        </mxCell>
        <mxCell id="WJYO6susdfTsPlZlmV2k-39" value="Call GetAllBranches" style="edgeLabel;html=1;align=center;verticalAlign=middle;resizable=0;points=[];" connectable="0" vertex="1" parent="WJYO6susdfTsPlZlmV2k-38">
          <mxGeometry x="-0.0595" y="-2" relative="1" as="geometry">
            <mxPoint x="5" y="-12" as="offset" />
          </mxGeometry>
        </mxCell>
        <mxCell id="WJYO6susdfTsPlZlmV2k-40" value="" style="endArrow=classic;html=1;rounded=0;" edge="1" parent="1" target="6aNFFvRFKAyDfRnZi1tQ-7">
          <mxGeometry width="50" height="50" relative="1" as="geometry">
            <mxPoint x="2042" y="739" as="sourcePoint" />
            <mxPoint x="2177" y="739" as="targetPoint" />
          </mxGeometry>
        </mxCell>
        <mxCell id="WJYO6susdfTsPlZlmV2k-41" value="SELECT all items in Branches&lt;br&gt;table" style="edgeLabel;html=1;align=center;verticalAlign=middle;resizable=0;points=[];" connectable="0" vertex="1" parent="WJYO6susdfTsPlZlmV2k-40">
          <mxGeometry x="-0.0595" y="-2" relative="1" as="geometry">
            <mxPoint x="5" y="-27" as="offset" />
          </mxGeometry>
        </mxCell>
        <mxCell id="WJYO6susdfTsPlZlmV2k-42" value="" style="endArrow=classic;html=1;rounded=0;dashed=1;entryX=1;entryY=0.717;entryDx=0;entryDy=0;entryPerimeter=0;" edge="1" parent="1" target="6aNFFvRFKAyDfRnZi1tQ-28">
          <mxGeometry width="50" height="50" relative="1" as="geometry">
            <mxPoint x="2179" y="787" as="sourcePoint" />
            <mxPoint x="2044" y="787" as="targetPoint" />
          </mxGeometry>
        </mxCell>
        <mxCell id="WJYO6susdfTsPlZlmV2k-43" value="Return (List&amp;lt;Branch&amp;gt;) " style="edgeLabel;html=1;align=center;verticalAlign=middle;resizable=0;points=[];" connectable="0" vertex="1" parent="WJYO6susdfTsPlZlmV2k-42">
          <mxGeometry x="-0.0595" y="-2" relative="1" as="geometry">
            <mxPoint x="-3" y="-11" as="offset" />
          </mxGeometry>
        </mxCell>
        <mxCell id="WJYO6susdfTsPlZlmV2k-44" value="" style="endArrow=classic;html=1;rounded=0;dashed=1;" edge="1" parent="1">
          <mxGeometry width="50" height="50" relative="1" as="geometry">
            <mxPoint x="2042" y="805" as="sourcePoint" />
            <mxPoint x="1907" y="805" as="targetPoint" />
          </mxGeometry>
        </mxCell>
        <mxCell id="WJYO6susdfTsPlZlmV2k-45" value="Return (List&amp;lt;Branch&amp;gt;) " style="edgeLabel;html=1;align=center;verticalAlign=middle;resizable=0;points=[];" connectable="0" vertex="1" parent="WJYO6susdfTsPlZlmV2k-44">
          <mxGeometry x="-0.0595" y="-2" relative="1" as="geometry">
            <mxPoint x="-3" y="-11" as="offset" />
          </mxGeometry>
        </mxCell>
        <mxCell id="WJYO6susdfTsPlZlmV2k-46" value="" style="endArrow=classic;html=1;rounded=0;dashed=1;" edge="1" parent="1" target="6aNFFvRFKAyDfRnZi1tQ-24">
          <mxGeometry width="50" height="50" relative="1" as="geometry">
            <mxPoint x="1899" y="826" as="sourcePoint" />
            <mxPoint x="1757" y="826" as="targetPoint" />
          </mxGeometry>
        </mxCell>
        <mxCell id="WJYO6susdfTsPlZlmV2k-47" value="Return (List&amp;lt;Branch&amp;gt;&lt;br&gt;as JSON) " style="edgeLabel;html=1;align=center;verticalAlign=middle;resizable=0;points=[];" connectable="0" vertex="1" parent="WJYO6susdfTsPlZlmV2k-46">
          <mxGeometry x="-0.0595" y="-2" relative="1" as="geometry">
            <mxPoint y="-19" as="offset" />
          </mxGeometry>
        </mxCell>
        <mxCell id="WJYO6susdfTsPlZlmV2k-48" value="" style="endArrow=classic;html=1;rounded=0;dashed=1;" edge="1" parent="1" target="6aNFFvRFKAyDfRnZi1tQ-20">
          <mxGeometry width="50" height="50" relative="1" as="geometry">
            <mxPoint x="1757" y="852" as="sourcePoint" />
            <mxPoint x="386" y="852" as="targetPoint" />
          </mxGeometry>
        </mxCell>
        <mxCell id="WJYO6susdfTsPlZlmV2k-49" value="Return (List&amp;lt;Branch&amp;gt;&lt;br&gt;as JSON) " style="edgeLabel;html=1;align=center;verticalAlign=middle;resizable=0;points=[];" connectable="0" vertex="1" parent="WJYO6susdfTsPlZlmV2k-48">
          <mxGeometry x="-0.0595" y="-2" relative="1" as="geometry">
            <mxPoint x="564" y="-17" as="offset" />
          </mxGeometry>
        </mxCell>
        <mxCell id="WJYO6susdfTsPlZlmV2k-50" value="" style="endArrow=classic;html=1;rounded=0;dashed=1;" edge="1" parent="1">
          <mxGeometry width="50" height="50" relative="1" as="geometry">
            <mxPoint x="382" y="884" as="sourcePoint" />
            <mxPoint x="220" y="884" as="targetPoint" />
          </mxGeometry>
        </mxCell>
        <mxCell id="WJYO6susdfTsPlZlmV2k-51" value="Return (JSON) " style="edgeLabel;html=1;align=center;verticalAlign=middle;resizable=0;points=[];" connectable="0" vertex="1" parent="WJYO6susdfTsPlZlmV2k-50">
          <mxGeometry x="-0.0595" y="-2" relative="1" as="geometry">
            <mxPoint x="-6" y="-10" as="offset" />
          </mxGeometry>
        </mxCell>
        <mxCell id="WJYO6susdfTsPlZlmV2k-52" value="" style="endArrow=classic;html=1;rounded=0;dashed=1;" edge="1" parent="1">
          <mxGeometry width="50" height="50" relative="1" as="geometry">
            <mxPoint x="214" y="899" as="sourcePoint" />
            <mxPoint x="52" y="899" as="targetPoint" />
          </mxGeometry>
        </mxCell>
        <mxCell id="WJYO6susdfTsPlZlmV2k-53" value="Displays populated&lt;br&gt;branches dropdown" style="edgeLabel;html=1;align=center;verticalAlign=middle;resizable=0;points=[];" connectable="0" vertex="1" parent="WJYO6susdfTsPlZlmV2k-52">
          <mxGeometry x="-0.0595" y="-2" relative="1" as="geometry">
            <mxPoint x="-4" y="-17" as="offset" />
          </mxGeometry>
        </mxCell>
        <mxCell id="WJYO6susdfTsPlZlmV2k-54" value="" style="endArrow=classic;html=1;rounded=0;" edge="1" parent="1">
          <mxGeometry width="50" height="50" relative="1" as="geometry">
            <mxPoint x="53" y="566" as="sourcePoint" />
            <mxPoint x="209" y="566" as="targetPoint" />
          </mxGeometry>
        </mxCell>
        <mxCell id="WJYO6susdfTsPlZlmV2k-55" value="Clicks on a media card" style="edgeLabel;html=1;align=center;verticalAlign=middle;resizable=0;points=[];" connectable="0" vertex="1" parent="WJYO6susdfTsPlZlmV2k-54">
          <mxGeometry x="0.2814" y="2" relative="1" as="geometry">
            <mxPoint x="-25" y="-8" as="offset" />
          </mxGeometry>
        </mxCell>
        <mxCell id="WJYO6susdfTsPlZlmV2k-56" value="" style="endArrow=classic;html=1;rounded=0;" edge="1" parent="1">
          <mxGeometry width="50" height="50" relative="1" as="geometry">
            <mxPoint x="55" y="974" as="sourcePoint" />
            <mxPoint x="211" y="974" as="targetPoint" />
          </mxGeometry>
        </mxCell>
        <mxCell id="WJYO6susdfTsPlZlmV2k-57" value="Selects a target branch" style="edgeLabel;html=1;align=center;verticalAlign=middle;resizable=0;points=[];" connectable="0" vertex="1" parent="WJYO6susdfTsPlZlmV2k-56">
          <mxGeometry x="0.2814" y="2" relative="1" as="geometry">
            <mxPoint x="-25" y="-8" as="offset" />
          </mxGeometry>
        </mxCell>
        <mxCell id="WJYO6susdfTsPlZlmV2k-59" value="Render StockTransfer&lt;br&gt;component" style="html=1;align=left;spacingLeft=2;endArrow=block;rounded=0;edgeStyle=orthogonalEdgeStyle;curved=0;rounded=0;" edge="1" parent="1">
          <mxGeometry relative="1" as="geometry">
            <mxPoint x="218" y="1001" as="sourcePoint" />
            <Array as="points">
              <mxPoint x="248" y="1031" />
            </Array>
            <mxPoint x="223" y="1031" as="targetPoint" />
          </mxGeometry>
        </mxCell>
        <mxCell id="WJYO6susdfTsPlZlmV2k-60" value="" style="endArrow=classic;html=1;rounded=0;entryX=0;entryY=0;entryDx=0;entryDy=5;entryPerimeter=0;" edge="1" parent="1" target="6aNFFvRFKAyDfRnZi1tQ-32">
          <mxGeometry width="50" height="50" relative="1" as="geometry">
            <mxPoint x="215" y="1076" as="sourcePoint" />
            <mxPoint x="379" y="1076" as="targetPoint" />
          </mxGeometry>
        </mxCell>
        <mxCell id="WJYO6susdfTsPlZlmV2k-61" value="{GET} GetMediaStockRecords&lt;br&gt;(int branchId, int mediaModelId)" style="edgeLabel;html=1;align=center;verticalAlign=middle;resizable=0;points=[];" connectable="0" vertex="1" parent="WJYO6susdfTsPlZlmV2k-60">
          <mxGeometry x="-0.0488" y="-4" relative="1" as="geometry">
            <mxPoint x="5" y="-22" as="offset" />
          </mxGeometry>
        </mxCell>
        <mxCell id="WJYO6susdfTsPlZlmV2k-62" value="" style="endArrow=classic;html=1;rounded=0;" edge="1" parent="1">
          <mxGeometry width="50" height="50" relative="1" as="geometry">
            <mxPoint x="381" y="1103" as="sourcePoint" />
            <mxPoint x="549" y="1103" as="targetPoint" />
          </mxGeometry>
        </mxCell>
        <mxCell id="WJYO6susdfTsPlZlmV2k-63" value="Authenticate request" style="edgeLabel;html=1;align=center;verticalAlign=middle;resizable=0;points=[];" connectable="0" vertex="1" parent="WJYO6susdfTsPlZlmV2k-62">
          <mxGeometry x="-0.0595" y="-2" relative="1" as="geometry">
            <mxPoint x="1" y="-17" as="offset" />
          </mxGeometry>
        </mxCell>
        <mxCell id="WJYO6susdfTsPlZlmV2k-64" value="" style="endArrow=classic;html=1;rounded=0;entryX=0;entryY=0;entryDx=0;entryDy=5;entryPerimeter=0;" edge="1" parent="1" target="6aNFFvRFKAyDfRnZi1tQ-34">
          <mxGeometry width="50" height="50" relative="1" as="geometry">
            <mxPoint x="376" y="1169" as="sourcePoint" />
            <mxPoint x="719" y="1169" as="targetPoint" />
          </mxGeometry>
        </mxCell>
        <mxCell id="WJYO6susdfTsPlZlmV2k-65" value="Proxy request" style="edgeLabel;html=1;align=center;verticalAlign=middle;resizable=0;points=[];" connectable="0" vertex="1" parent="WJYO6susdfTsPlZlmV2k-64">
          <mxGeometry x="-0.0595" y="-2" relative="1" as="geometry">
            <mxPoint x="-71" y="-15" as="offset" />
          </mxGeometry>
        </mxCell>
        <mxCell id="WJYO6susdfTsPlZlmV2k-66" value="" style="endArrow=classic;html=1;rounded=0;dashed=1;" edge="1" parent="1" target="6aNFFvRFKAyDfRnZi1tQ-17">
          <mxGeometry width="50" height="50" relative="1" as="geometry">
            <mxPoint x="555" y="267" as="sourcePoint" />
            <mxPoint x="387" y="267" as="targetPoint" />
          </mxGeometry>
        </mxCell>
        <mxCell id="WJYO6susdfTsPlZlmV2k-67" value="Return success" style="edgeLabel;html=1;align=center;verticalAlign=middle;resizable=0;points=[];" connectable="0" vertex="1" parent="WJYO6susdfTsPlZlmV2k-66">
          <mxGeometry x="-0.0595" y="-2" relative="1" as="geometry">
            <mxPoint x="1" y="-17" as="offset" />
          </mxGeometry>
        </mxCell>
        <mxCell id="WJYO6susdfTsPlZlmV2k-68" value="" style="endArrow=classic;html=1;rounded=0;dashed=1;" edge="1" parent="1" target="6aNFFvRFKAyDfRnZi1tQ-20">
          <mxGeometry width="50" height="50" relative="1" as="geometry">
            <mxPoint x="551" y="664" as="sourcePoint" />
            <mxPoint x="383" y="664" as="targetPoint" />
          </mxGeometry>
        </mxCell>
        <mxCell id="WJYO6susdfTsPlZlmV2k-69" value="Return success" style="edgeLabel;html=1;align=center;verticalAlign=middle;resizable=0;points=[];" connectable="0" vertex="1" parent="WJYO6susdfTsPlZlmV2k-68">
          <mxGeometry x="-0.0595" y="-2" relative="1" as="geometry">
            <mxPoint x="1" y="-17" as="offset" />
          </mxGeometry>
        </mxCell>
        <mxCell id="WJYO6susdfTsPlZlmV2k-70" value="" style="endArrow=classic;html=1;rounded=0;dashed=1;" edge="1" parent="1">
          <mxGeometry width="50" height="50" relative="1" as="geometry">
            <mxPoint x="551" y="1134" as="sourcePoint" />
            <mxPoint x="383" y="1134" as="targetPoint" />
          </mxGeometry>
        </mxCell>
        <mxCell id="WJYO6susdfTsPlZlmV2k-71" value="Return success" style="edgeLabel;html=1;align=center;verticalAlign=middle;resizable=0;points=[];" connectable="0" vertex="1" parent="WJYO6susdfTsPlZlmV2k-70">
          <mxGeometry x="-0.0595" y="-2" relative="1" as="geometry">
            <mxPoint x="1" y="-17" as="offset" />
          </mxGeometry>
        </mxCell>
        <mxCell id="WJYO6susdfTsPlZlmV2k-72" value="" style="endArrow=classic;html=1;rounded=0;" edge="1" parent="1" source="6aNFFvRFKAyDfRnZi1tQ-34">
          <mxGeometry width="50" height="50" relative="1" as="geometry">
            <mxPoint x="719" y="1205" as="sourcePoint" />
            <mxPoint x="885" y="1205" as="targetPoint" />
          </mxGeometry>
        </mxCell>
        <mxCell id="WJYO6susdfTsPlZlmV2k-76" value="" style="endArrow=classic;html=1;rounded=0;entryX=0;entryY=0;entryDx=0;entryDy=5;entryPerimeter=0;" edge="1" parent="1" source="6aNFFvRFKAyDfRnZi1tQ-37" target="6aNFFvRFKAyDfRnZi1tQ-40">
          <mxGeometry width="50" height="50" relative="1" as="geometry">
            <mxPoint x="883" y="1233" as="sourcePoint" />
            <mxPoint x="1038" y="1233" as="targetPoint" />
          </mxGeometry>
        </mxCell>
        <mxCell id="WJYO6susdfTsPlZlmV2k-78" value="" style="endArrow=classic;html=1;rounded=0;" edge="1" parent="1">
          <mxGeometry width="50" height="50" relative="1" as="geometry">
            <mxPoint x="1044" y="1262" as="sourcePoint" />
            <mxPoint x="2175.3529411764707" y="1262" as="targetPoint" />
          </mxGeometry>
        </mxCell>
        <mxCell id="WJYO6susdfTsPlZlmV2k-79" value="SELECT BranchStockRecords WHERE BranchStockRecordId = branchId &amp;amp;&lt;br&gt;MediaModelFormatConnection.MediaModelId = mediaId" style="edgeLabel;html=1;align=center;verticalAlign=middle;resizable=0;points=[];" connectable="0" vertex="1" parent="WJYO6susdfTsPlZlmV2k-78">
          <mxGeometry x="-0.562" y="9" relative="1" as="geometry">
            <mxPoint x="-62" y="-13" as="offset" />
          </mxGeometry>
        </mxCell>
        <mxCell id="WJYO6susdfTsPlZlmV2k-80" value="" style="endArrow=classic;html=1;rounded=0;dashed=1;" edge="1" parent="1" target="6aNFFvRFKAyDfRnZi1tQ-40">
          <mxGeometry width="50" height="50" relative="1" as="geometry">
            <mxPoint x="2178" y="1309" as="sourcePoint" />
            <mxPoint x="1025" y="1317" as="targetPoint" />
          </mxGeometry>
        </mxCell>
        <mxCell id="WJYO6susdfTsPlZlmV2k-81" value="Return &lt;br&gt;(List&amp;lt;BranchStockRecord) " style="edgeLabel;html=1;align=center;verticalAlign=middle;resizable=0;points=[];" connectable="0" vertex="1" parent="WJYO6susdfTsPlZlmV2k-80">
          <mxGeometry x="-0.0595" y="-2" relative="1" as="geometry">
            <mxPoint x="-3" y="-17" as="offset" />
          </mxGeometry>
        </mxCell>
        <mxCell id="WJYO6susdfTsPlZlmV2k-82" value="Loop" style="shape=umlFrame;whiteSpace=wrap;html=1;pointerEvents=0;" vertex="1" parent="1">
          <mxGeometry x="730" y="1367" width="361" height="154" as="geometry" />
        </mxCell>
        <mxCell id="WJYO6susdfTsPlZlmV2k-87" value="For each &lt;br&gt;BranchStockRecord" style="text;html=1;align=center;verticalAlign=middle;resizable=0;points=[];autosize=1;strokeColor=none;fillColor=none;" vertex="1" parent="1">
          <mxGeometry x="723.5" y="1395" width="127" height="41" as="geometry" />
        </mxCell>
        <mxCell id="WJYO6susdfTsPlZlmV2k-88" value="" style="endArrow=classic;html=1;rounded=0;dashed=1;" edge="1" parent="1" target="6aNFFvRFKAyDfRnZi1tQ-37">
          <mxGeometry width="50" height="50" relative="1" as="geometry">
            <mxPoint x="1040" y="1353" as="sourcePoint" />
            <mxPoint x="879.5" y="1353" as="targetPoint" />
          </mxGeometry>
        </mxCell>
        <mxCell id="WJYO6susdfTsPlZlmV2k-89" value="Return &lt;br&gt;(List&amp;lt;BranchStockRecord) " style="edgeLabel;html=1;align=center;verticalAlign=middle;resizable=0;points=[];" connectable="0" vertex="1" parent="WJYO6susdfTsPlZlmV2k-88">
          <mxGeometry x="-0.0595" y="-2" relative="1" as="geometry">
            <mxPoint x="-3" y="-17" as="offset" />
          </mxGeometry>
        </mxCell>
        <mxCell id="WJYO6susdfTsPlZlmV2k-91" value="GenerateBranchStockRecordDto&lt;br&gt;(List&amp;lt;BranchStockRecord&amp;gt;)" style="html=1;align=left;spacingLeft=2;endArrow=block;rounded=0;edgeStyle=orthogonalEdgeStyle;curved=0;rounded=0;" edge="1" parent="1">
          <mxGeometry relative="1" as="geometry">
            <mxPoint x="883" y="1422" as="sourcePoint" />
            <Array as="points">
              <mxPoint x="913" y="1422" />
              <mxPoint x="913" y="1487" />
              <mxPoint x="888" y="1487" />
            </Array>
            <mxPoint x="888" y="1487" as="targetPoint" />
          </mxGeometry>
        </mxCell>
        <mxCell id="WJYO6susdfTsPlZlmV2k-92" value="" style="endArrow=classic;html=1;rounded=0;dashed=1;" edge="1" parent="1" target="6aNFFvRFKAyDfRnZi1tQ-34">
          <mxGeometry width="50" height="50" relative="1" as="geometry">
            <mxPoint x="877.5" y="1577" as="sourcePoint" />
            <mxPoint x="717" y="1577" as="targetPoint" />
          </mxGeometry>
        </mxCell>
        <mxCell id="WJYO6susdfTsPlZlmV2k-93" value="Return &lt;br&gt;(List&amp;lt;BranchStockRecordDto&amp;gt;) " style="edgeLabel;html=1;align=center;verticalAlign=middle;resizable=0;points=[];" connectable="0" vertex="1" parent="WJYO6susdfTsPlZlmV2k-92">
          <mxGeometry x="-0.0595" y="-2" relative="1" as="geometry">
            <mxPoint x="-3" y="-17" as="offset" />
          </mxGeometry>
        </mxCell>
        <mxCell id="WJYO6susdfTsPlZlmV2k-95" value="" style="endArrow=classic;html=1;rounded=0;dashed=1;" edge="1" parent="1">
          <mxGeometry width="50" height="50" relative="1" as="geometry">
            <mxPoint x="715.5" y="1615" as="sourcePoint" />
            <mxPoint x="382" y="1615" as="targetPoint" />
          </mxGeometry>
        </mxCell>
        <mxCell id="WJYO6susdfTsPlZlmV2k-96" value="Return &lt;br&gt;(List&amp;lt;BranchStockRecordDto&amp;gt;&lt;br&gt;As JSON" style="edgeLabel;html=1;align=center;verticalAlign=middle;resizable=0;points=[];" connectable="0" vertex="1" parent="WJYO6susdfTsPlZlmV2k-95">
          <mxGeometry x="-0.0595" y="-2" relative="1" as="geometry">
            <mxPoint x="78" y="-21" as="offset" />
          </mxGeometry>
        </mxCell>
        <mxCell id="WJYO6susdfTsPlZlmV2k-97" value="" style="endArrow=classic;html=1;rounded=0;dashed=1;" edge="1" parent="1">
          <mxGeometry width="50" height="50" relative="1" as="geometry">
            <mxPoint x="372" y="1642" as="sourcePoint" />
            <mxPoint x="210" y="1642" as="targetPoint" />
          </mxGeometry>
        </mxCell>
        <mxCell id="WJYO6susdfTsPlZlmV2k-98" value="Return (JSON) " style="edgeLabel;html=1;align=center;verticalAlign=middle;resizable=0;points=[];" connectable="0" vertex="1" parent="WJYO6susdfTsPlZlmV2k-97">
          <mxGeometry x="-0.0595" y="-2" relative="1" as="geometry">
            <mxPoint x="-6" y="-10" as="offset" />
          </mxGeometry>
        </mxCell>
        <mxCell id="WJYO6susdfTsPlZlmV2k-99" value="" style="endArrow=classic;html=1;rounded=0;dashed=1;" edge="1" parent="1">
          <mxGeometry width="50" height="50" relative="1" as="geometry">
            <mxPoint x="211" y="1674" as="sourcePoint" />
            <mxPoint x="49" y="1674" as="targetPoint" />
          </mxGeometry>
        </mxCell>
        <mxCell id="WJYO6susdfTsPlZlmV2k-100" value="Display&amp;nbsp; transfer forms" style="edgeLabel;html=1;align=center;verticalAlign=middle;resizable=0;points=[];" connectable="0" vertex="1" parent="WJYO6susdfTsPlZlmV2k-99">
          <mxGeometry x="-0.0595" y="-2" relative="1" as="geometry">
            <mxPoint x="-6" y="-10" as="offset" />
          </mxGeometry>
        </mxCell>
        <mxCell id="WJYO6susdfTsPlZlmV2k-101" value="" style="endArrow=classic;html=1;rounded=0;" edge="1" parent="1">
          <mxGeometry width="50" height="50" relative="1" as="geometry">
            <mxPoint x="53" y="1708" as="sourcePoint" />
            <mxPoint x="209" y="1708" as="targetPoint" />
          </mxGeometry>
        </mxCell>
        <mxCell id="WJYO6susdfTsPlZlmV2k-102" value="Inputs values to transfer" style="edgeLabel;html=1;align=center;verticalAlign=middle;resizable=0;points=[];" connectable="0" vertex="1" parent="WJYO6susdfTsPlZlmV2k-101">
          <mxGeometry x="0.2814" y="2" relative="1" as="geometry">
            <mxPoint x="-25" y="-8" as="offset" />
          </mxGeometry>
        </mxCell>
        <mxCell id="WJYO6susdfTsPlZlmV2k-103" value="" style="endArrow=classic;html=1;rounded=0;" edge="1" parent="1">
          <mxGeometry width="50" height="50" relative="1" as="geometry">
            <mxPoint x="51" y="1742" as="sourcePoint" />
            <mxPoint x="207" y="1742" as="targetPoint" />
          </mxGeometry>
        </mxCell>
        <mxCell id="WJYO6susdfTsPlZlmV2k-104" value="Submits Values" style="edgeLabel;html=1;align=center;verticalAlign=middle;resizable=0;points=[];" connectable="0" vertex="1" parent="WJYO6susdfTsPlZlmV2k-103">
          <mxGeometry x="0.2814" y="2" relative="1" as="geometry">
            <mxPoint x="-25" y="-8" as="offset" />
          </mxGeometry>
        </mxCell>
        <mxCell id="6aNFFvRFKAyDfRnZi1tQ-2" value="" style="endArrow=none;dashed=1;html=1;rounded=0;" edge="1" parent="1" target="6aNFFvRFKAyDfRnZi1tQ-1">
          <mxGeometry width="50" height="50" relative="1" as="geometry">
            <mxPoint x="1249" y="3462" as="sourcePoint" />
            <mxPoint x="1256" y="93" as="targetPoint" />
          </mxGeometry>
        </mxCell>
        <mxCell id="6aNFFvRFKAyDfRnZi1tQ-1" value="" style="html=1;points=[[0,0,0,0,5],[0,1,0,0,-5],[1,0,0,0,5],[1,1,0,0,-5]];perimeter=orthogonalPerimeter;outlineConnect=0;targetShapes=umlLifeline;portConstraint=eastwest;newEdgeStyle={&quot;curved&quot;:0,&quot;rounded&quot;:0};" vertex="1" parent="1">
          <mxGeometry x="1249" y="304" width="10" height="204" as="geometry" />
        </mxCell>
        <mxCell id="6aNFFvRFKAyDfRnZi1tQ-4" value="" style="endArrow=none;dashed=1;html=1;rounded=0;" edge="1" parent="1" target="6aNFFvRFKAyDfRnZi1tQ-3">
          <mxGeometry width="50" height="50" relative="1" as="geometry">
            <mxPoint x="1464" y="3472" as="sourcePoint" />
            <mxPoint x="1449" y="91" as="targetPoint" />
          </mxGeometry>
        </mxCell>
        <mxCell id="6aNFFvRFKAyDfRnZi1tQ-3" value="" style="html=1;points=[[0,0,0,0,5],[0,1,0,0,-5],[1,0,0,0,5],[1,1,0,0,-5]];perimeter=orthogonalPerimeter;outlineConnect=0;targetShapes=umlLifeline;portConstraint=eastwest;newEdgeStyle={&quot;curved&quot;:0,&quot;rounded&quot;:0};" vertex="1" parent="1">
          <mxGeometry x="1443" y="335" width="10" height="141" as="geometry" />
        </mxCell>
        <mxCell id="6aNFFvRFKAyDfRnZi1tQ-6" value="" style="endArrow=none;dashed=1;html=1;rounded=0;entryX=0.437;entryY=0.972;entryDx=0;entryDy=0;entryPerimeter=0;" edge="1" parent="1" target="6aNFFvRFKAyDfRnZi1tQ-5">
          <mxGeometry width="50" height="50" relative="1" as="geometry">
            <mxPoint x="1607" y="3461" as="sourcePoint" />
            <mxPoint x="1594" y="89" as="targetPoint" />
          </mxGeometry>
        </mxCell>
        <mxCell id="6aNFFvRFKAyDfRnZi1tQ-5" value="" style="html=1;points=[[0,0,0,0,5],[0,1,0,0,-5],[1,0,0,0,5],[1,1,0,0,-5]];perimeter=orthogonalPerimeter;outlineConnect=0;targetShapes=umlLifeline;portConstraint=eastwest;newEdgeStyle={&quot;curved&quot;:0,&quot;rounded&quot;:0};" vertex="1" parent="1">
          <mxGeometry x="1589" y="353" width="10" height="99" as="geometry" />
        </mxCell>
        <mxCell id="6aNFFvRFKAyDfRnZi1tQ-8" value="" style="endArrow=none;dashed=1;html=1;rounded=0;" edge="1" parent="1" source="6aNFFvRFKAyDfRnZi1tQ-42" target="6aNFFvRFKAyDfRnZi1tQ-7">
          <mxGeometry width="50" height="50" relative="1" as="geometry">
            <mxPoint x="2178" y="2329" as="sourcePoint" />
            <mxPoint x="2178" y="96" as="targetPoint" />
          </mxGeometry>
        </mxCell>
        <mxCell id="6aNFFvRFKAyDfRnZi1tQ-7" value="" style="html=1;points=[[0,0,0,0,5],[0,1,0,0,-5],[1,0,0,0,5],[1,1,0,0,-5]];perimeter=orthogonalPerimeter;outlineConnect=0;targetShapes=umlLifeline;portConstraint=eastwest;newEdgeStyle={&quot;curved&quot;:0,&quot;rounded&quot;:0};" vertex="1" parent="1">
          <mxGeometry x="2174" y="731" width="10" height="59" as="geometry" />
        </mxCell>
        <mxCell id="6aNFFvRFKAyDfRnZi1tQ-10" value="" style="endArrow=none;dashed=1;html=1;rounded=0;" edge="1" parent="1" source="6aNFFvRFKAyDfRnZi1tQ-13" target="6aNFFvRFKAyDfRnZi1tQ-9">
          <mxGeometry width="50" height="50" relative="1" as="geometry">
            <mxPoint x="556" y="2332" as="sourcePoint" />
            <mxPoint x="556" y="93" as="targetPoint" />
          </mxGeometry>
        </mxCell>
        <mxCell id="6aNFFvRFKAyDfRnZi1tQ-9" value="" style="html=1;points=[[0,0,0,0,5],[0,1,0,0,-5],[1,0,0,0,5],[1,1,0,0,-5]];perimeter=orthogonalPerimeter;outlineConnect=0;targetShapes=umlLifeline;portConstraint=eastwest;newEdgeStyle={&quot;curved&quot;:0,&quot;rounded&quot;:0};" vertex="1" parent="1">
          <mxGeometry x="549" y="228" width="10" height="46" as="geometry" />
        </mxCell>
        <mxCell id="6aNFFvRFKAyDfRnZi1tQ-11" value="" style="html=1;points=[[0,0,0,0,5],[0,1,0,0,-5],[1,0,0,0,5],[1,1,0,0,-5]];perimeter=orthogonalPerimeter;outlineConnect=0;targetShapes=umlLifeline;portConstraint=eastwest;newEdgeStyle={&quot;curved&quot;:0,&quot;rounded&quot;:0};" vertex="1" parent="1">
          <mxGeometry x="209" y="143" width="10" height="3176" as="geometry" />
        </mxCell>
        <mxCell id="6aNFFvRFKAyDfRnZi1tQ-14" value="" style="endArrow=none;dashed=1;html=1;rounded=0;" edge="1" parent="1" source="6aNFFvRFKAyDfRnZi1tQ-22" target="6aNFFvRFKAyDfRnZi1tQ-13">
          <mxGeometry width="50" height="50" relative="1" as="geometry">
            <mxPoint x="556" y="2332" as="sourcePoint" />
            <mxPoint x="556" y="274" as="targetPoint" />
          </mxGeometry>
        </mxCell>
        <mxCell id="6aNFFvRFKAyDfRnZi1tQ-13" value="" style="html=1;points=[[0,0,0,0,5],[0,1,0,0,-5],[1,0,0,0,5],[1,1,0,0,-5]];perimeter=orthogonalPerimeter;outlineConnect=0;targetShapes=umlLifeline;portConstraint=eastwest;newEdgeStyle={&quot;curved&quot;:0,&quot;rounded&quot;:0};" vertex="1" parent="1">
          <mxGeometry x="552" y="628" width="10" height="46" as="geometry" />
        </mxCell>
        <mxCell id="6aNFFvRFKAyDfRnZi1tQ-16" value="" style="endArrow=none;dashed=1;html=1;rounded=0;exitX=0.164;exitY=0.998;exitDx=0;exitDy=0;exitPerimeter=0;" edge="1" parent="1">
          <mxGeometry width="50" height="50" relative="1" as="geometry">
            <mxPoint x="385.6400000000003" y="574.326" as="sourcePoint" />
            <mxPoint x="385.6400000000003" y="607" as="targetPoint" />
          </mxGeometry>
        </mxCell>
        <mxCell id="6aNFFvRFKAyDfRnZi1tQ-18" value="" style="endArrow=none;dashed=1;html=1;rounded=0;exitX=0.164;exitY=0.998;exitDx=0;exitDy=0;exitPerimeter=0;" edge="1" parent="1" target="6aNFFvRFKAyDfRnZi1tQ-17">
          <mxGeometry width="50" height="50" relative="1" as="geometry">
            <mxPoint x="381.6399999999999" y="606.8019999999999" as="sourcePoint" />
            <mxPoint x="387" y="94" as="targetPoint" />
          </mxGeometry>
        </mxCell>
        <mxCell id="6aNFFvRFKAyDfRnZi1tQ-17" value="" style="html=1;points=[[0,0,0,0,5],[0,1,0,0,-5],[1,0,0,0,5],[1,1,0,0,-5]];perimeter=orthogonalPerimeter;outlineConnect=0;targetShapes=umlLifeline;portConstraint=eastwest;newEdgeStyle={&quot;curved&quot;:0,&quot;rounded&quot;:0};" vertex="1" parent="1">
          <mxGeometry x="383" y="192" width="10" height="322" as="geometry" />
        </mxCell>
        <mxCell id="6aNFFvRFKAyDfRnZi1tQ-21" value="" style="endArrow=none;dashed=1;html=1;rounded=0;" edge="1" parent="1" source="6aNFFvRFKAyDfRnZi1tQ-32" target="6aNFFvRFKAyDfRnZi1tQ-20">
          <mxGeometry width="50" height="50" relative="1" as="geometry">
            <mxPoint x="369" y="2335" as="sourcePoint" />
            <mxPoint x="384" y="575" as="targetPoint" />
          </mxGeometry>
        </mxCell>
        <mxCell id="6aNFFvRFKAyDfRnZi1tQ-20" value="" style="html=1;points=[[0,0,0,0,5],[0,1,0,0,-5],[1,0,0,0,5],[1,1,0,0,-5]];perimeter=orthogonalPerimeter;outlineConnect=0;targetShapes=umlLifeline;portConstraint=eastwest;newEdgeStyle={&quot;curved&quot;:0,&quot;rounded&quot;:0};" vertex="1" parent="1">
          <mxGeometry x="380" y="593" width="10" height="296" as="geometry" />
        </mxCell>
        <mxCell id="6aNFFvRFKAyDfRnZi1tQ-23" value="" style="endArrow=none;dashed=1;html=1;rounded=0;" edge="1" parent="1" target="6aNFFvRFKAyDfRnZi1tQ-22">
          <mxGeometry width="50" height="50" relative="1" as="geometry">
            <mxPoint x="556" y="3486" as="sourcePoint" />
            <mxPoint x="556" y="674" as="targetPoint" />
          </mxGeometry>
        </mxCell>
        <mxCell id="6aNFFvRFKAyDfRnZi1tQ-22" value="" style="html=1;points=[[0,0,0,0,5],[0,1,0,0,-5],[1,0,0,0,5],[1,1,0,0,-5]];perimeter=orthogonalPerimeter;outlineConnect=0;targetShapes=umlLifeline;portConstraint=eastwest;newEdgeStyle={&quot;curved&quot;:0,&quot;rounded&quot;:0};" vertex="1" parent="1">
          <mxGeometry x="549" y="1097" width="10" height="46" as="geometry" />
        </mxCell>
        <mxCell id="6aNFFvRFKAyDfRnZi1tQ-25" value="" style="endArrow=none;dashed=1;html=1;rounded=0;" edge="1" parent="1" target="6aNFFvRFKAyDfRnZi1tQ-24">
          <mxGeometry width="50" height="50" relative="1" as="geometry">
            <mxPoint x="1757" y="3460" as="sourcePoint" />
            <mxPoint x="1757" y="93" as="targetPoint" />
          </mxGeometry>
        </mxCell>
        <mxCell id="6aNFFvRFKAyDfRnZi1tQ-24" value="" style="html=1;points=[[0,0,0,0,5],[0,1,0,0,-5],[1,0,0,0,5],[1,1,0,0,-5]];perimeter=orthogonalPerimeter;outlineConnect=0;targetShapes=umlLifeline;portConstraint=eastwest;newEdgeStyle={&quot;curved&quot;:0,&quot;rounded&quot;:0};" vertex="1" parent="1">
          <mxGeometry x="1755" y="672" width="10" height="191" as="geometry" />
        </mxCell>
        <mxCell id="6aNFFvRFKAyDfRnZi1tQ-27" value="" style="endArrow=none;dashed=1;html=1;rounded=0;" edge="1" parent="1" target="6aNFFvRFKAyDfRnZi1tQ-26">
          <mxGeometry width="50" height="50" relative="1" as="geometry">
            <mxPoint x="1900" y="3455" as="sourcePoint" />
            <mxPoint x="1902" y="91" as="targetPoint" />
          </mxGeometry>
        </mxCell>
        <mxCell id="6aNFFvRFKAyDfRnZi1tQ-26" value="" style="html=1;points=[[0,0,0,0,5],[0,1,0,0,-5],[1,0,0,0,5],[1,1,0,0,-5]];perimeter=orthogonalPerimeter;outlineConnect=0;targetShapes=umlLifeline;portConstraint=eastwest;newEdgeStyle={&quot;curved&quot;:0,&quot;rounded&quot;:0};" vertex="1" parent="1">
          <mxGeometry x="1899" y="695" width="10" height="141" as="geometry" />
        </mxCell>
        <mxCell id="6aNFFvRFKAyDfRnZi1tQ-29" value="" style="endArrow=none;dashed=1;html=1;rounded=0;" edge="1" parent="1" target="6aNFFvRFKAyDfRnZi1tQ-28">
          <mxGeometry width="50" height="50" relative="1" as="geometry">
            <mxPoint x="2041" y="3447" as="sourcePoint" />
            <mxPoint x="2041" y="96" as="targetPoint" />
          </mxGeometry>
        </mxCell>
        <mxCell id="6aNFFvRFKAyDfRnZi1tQ-28" value="" style="html=1;points=[[0,0,0,0,5],[0,1,0,0,-5],[1,0,0,0,5],[1,1,0,0,-5]];perimeter=orthogonalPerimeter;outlineConnect=0;targetShapes=umlLifeline;portConstraint=eastwest;newEdgeStyle={&quot;curved&quot;:0,&quot;rounded&quot;:0};" vertex="1" parent="1">
          <mxGeometry x="2038" y="716" width="10" height="99" as="geometry" />
        </mxCell>
        <mxCell id="6aNFFvRFKAyDfRnZi1tQ-31" value="" style="endArrow=none;dashed=1;html=1;rounded=0;" edge="1" parent="1" source="6aNFFvRFKAyDfRnZi1tQ-7" target="6aNFFvRFKAyDfRnZi1tQ-30">
          <mxGeometry width="50" height="50" relative="1" as="geometry">
            <mxPoint x="2178" y="731" as="sourcePoint" />
            <mxPoint x="2178" y="96" as="targetPoint" />
          </mxGeometry>
        </mxCell>
        <mxCell id="6aNFFvRFKAyDfRnZi1tQ-30" value="" style="html=1;points=[[0,0,0,0,5],[0,1,0,0,-5],[1,0,0,0,5],[1,1,0,0,-5]];perimeter=orthogonalPerimeter;outlineConnect=0;targetShapes=umlLifeline;portConstraint=eastwest;newEdgeStyle={&quot;curved&quot;:0,&quot;rounded&quot;:0};" vertex="1" parent="1">
          <mxGeometry x="2174" y="372" width="10" height="52" as="geometry" />
        </mxCell>
        <mxCell id="6aNFFvRFKAyDfRnZi1tQ-33" value="" style="endArrow=none;dashed=1;html=1;rounded=0;" edge="1" parent="1" source="6aNFFvRFKAyDfRnZi1tQ-140" target="6aNFFvRFKAyDfRnZi1tQ-32">
          <mxGeometry width="50" height="50" relative="1" as="geometry">
            <mxPoint x="366" y="3487" as="sourcePoint" />
            <mxPoint x="380" y="889" as="targetPoint" />
          </mxGeometry>
        </mxCell>
        <mxCell id="6aNFFvRFKAyDfRnZi1tQ-32" value="" style="html=1;points=[[0,0,0,0,5],[0,1,0,0,-5],[1,0,0,0,5],[1,1,0,0,-5]];perimeter=orthogonalPerimeter;outlineConnect=0;targetShapes=umlLifeline;portConstraint=eastwest;newEdgeStyle={&quot;curved&quot;:0,&quot;rounded&quot;:0};" vertex="1" parent="1">
          <mxGeometry x="373" y="1071" width="10" height="571" as="geometry" />
        </mxCell>
        <mxCell id="6aNFFvRFKAyDfRnZi1tQ-35" value="" style="endArrow=classic;html=1;rounded=0;" edge="1" parent="1" target="6aNFFvRFKAyDfRnZi1tQ-34">
          <mxGeometry width="50" height="50" relative="1" as="geometry">
            <mxPoint x="719" y="1205" as="sourcePoint" />
            <mxPoint x="885" y="1205" as="targetPoint" />
          </mxGeometry>
        </mxCell>
        <mxCell id="6aNFFvRFKAyDfRnZi1tQ-36" value="GetStockRecords&lt;br&gt;(int branchId, int mediaModelId)" style="edgeLabel;html=1;align=center;verticalAlign=middle;resizable=0;points=[];" connectable="0" vertex="1" parent="6aNFFvRFKAyDfRnZi1tQ-35">
          <mxGeometry x="-0.562" y="9" relative="1" as="geometry">
            <mxPoint x="94" y="-11" as="offset" />
          </mxGeometry>
        </mxCell>
        <mxCell id="6aNFFvRFKAyDfRnZi1tQ-34" value="" style="html=1;points=[[0,0,0,0,5],[0,1,0,0,-5],[1,0,0,0,5],[1,1,0,0,-5]];perimeter=orthogonalPerimeter;outlineConnect=0;targetShapes=umlLifeline;portConstraint=eastwest;newEdgeStyle={&quot;curved&quot;:0,&quot;rounded&quot;:0};" vertex="1" parent="1">
          <mxGeometry x="713.5" y="1164" width="10" height="455" as="geometry" />
        </mxCell>
        <mxCell id="6aNFFvRFKAyDfRnZi1tQ-38" value="" style="endArrow=classic;html=1;rounded=0;" edge="1" parent="1" target="6aNFFvRFKAyDfRnZi1tQ-37">
          <mxGeometry width="50" height="50" relative="1" as="geometry">
            <mxPoint x="883" y="1233" as="sourcePoint" />
            <mxPoint x="1038" y="1233" as="targetPoint" />
          </mxGeometry>
        </mxCell>
        <mxCell id="6aNFFvRFKAyDfRnZi1tQ-39" value="GetStockRecords&lt;br&gt;(int branchId, int mediaModelId)" style="edgeLabel;html=1;align=center;verticalAlign=middle;resizable=0;points=[];" connectable="0" vertex="1" parent="6aNFFvRFKAyDfRnZi1tQ-38">
          <mxGeometry x="-0.562" y="9" relative="1" as="geometry">
            <mxPoint x="89" y="-9" as="offset" />
          </mxGeometry>
        </mxCell>
        <mxCell id="6aNFFvRFKAyDfRnZi1tQ-37" value="" style="html=1;points=[[0,0,0,0,5],[0,1,0,0,-5],[1,0,0,0,5],[1,1,0,0,-5]];perimeter=orthogonalPerimeter;outlineConnect=0;targetShapes=umlLifeline;portConstraint=eastwest;newEdgeStyle={&quot;curved&quot;:0,&quot;rounded&quot;:0};" vertex="1" parent="1">
          <mxGeometry x="877" y="1196" width="10" height="388" as="geometry" />
        </mxCell>
        <mxCell id="6aNFFvRFKAyDfRnZi1tQ-41" value="" style="endArrow=none;dashed=1;html=1;rounded=0;" edge="1" parent="1" target="6aNFFvRFKAyDfRnZi1tQ-40">
          <mxGeometry width="50" height="50" relative="1" as="geometry">
            <mxPoint x="1025" y="3474" as="sourcePoint" />
            <mxPoint x="1048" y="93" as="targetPoint" />
          </mxGeometry>
        </mxCell>
        <mxCell id="6aNFFvRFKAyDfRnZi1tQ-40" value="" style="html=1;points=[[0,0,0,0,5],[0,1,0,0,-5],[1,0,0,0,5],[1,1,0,0,-5]];perimeter=orthogonalPerimeter;outlineConnect=0;targetShapes=umlLifeline;portConstraint=eastwest;newEdgeStyle={&quot;curved&quot;:0,&quot;rounded&quot;:0};" vertex="1" parent="1">
          <mxGeometry x="1035" y="1229" width="10" height="133" as="geometry" />
        </mxCell>
        <mxCell id="6aNFFvRFKAyDfRnZi1tQ-43" value="" style="endArrow=none;dashed=1;html=1;rounded=0;" edge="1" parent="1" target="6aNFFvRFKAyDfRnZi1tQ-42">
          <mxGeometry width="50" height="50" relative="1" as="geometry">
            <mxPoint x="2178" y="3453" as="sourcePoint" />
            <mxPoint x="2178" y="790" as="targetPoint" />
          </mxGeometry>
        </mxCell>
        <mxCell id="6aNFFvRFKAyDfRnZi1tQ-42" value="" style="html=1;points=[[0,0,0,0,5],[0,1,0,0,-5],[1,0,0,0,5],[1,1,0,0,-5]];perimeter=orthogonalPerimeter;outlineConnect=0;targetShapes=umlLifeline;portConstraint=eastwest;newEdgeStyle={&quot;curved&quot;:0,&quot;rounded&quot;:0};" vertex="1" parent="1">
          <mxGeometry x="2174" y="1254" width="10" height="63" as="geometry" />
        </mxCell>
        <mxCell id="6aNFFvRFKAyDfRnZi1tQ-44" value="&lt;div&gt;Create&lt;/div&gt;&lt;div&gt;stockUpdateDto&lt;br&gt;&lt;/div&gt;" style="html=1;align=left;spacingLeft=2;endArrow=block;rounded=0;edgeStyle=orthogonalEdgeStyle;curved=0;rounded=0;" edge="1" parent="1">
          <mxGeometry relative="1" as="geometry">
            <mxPoint x="217" y="1754" as="sourcePoint" />
            <Array as="points">
              <mxPoint x="247" y="1754" />
              <mxPoint x="247" y="1819" />
              <mxPoint x="222" y="1819" />
            </Array>
            <mxPoint x="222" y="1819" as="targetPoint" />
          </mxGeometry>
        </mxCell>
        <mxCell id="6aNFFvRFKAyDfRnZi1tQ-45" value="" style="endArrow=classic;html=1;rounded=0;" edge="1" parent="1">
          <mxGeometry width="50" height="50" relative="1" as="geometry">
            <mxPoint x="219" y="2036" as="sourcePoint" />
            <mxPoint x="370" y="2036" as="targetPoint" />
          </mxGeometry>
        </mxCell>
        <mxCell id="6aNFFvRFKAyDfRnZi1tQ-49" value="{POST} TransferStock&lt;br&gt;(stockUpdateDto)" style="edgeLabel;html=1;align=center;verticalAlign=middle;resizable=0;points=[];" connectable="0" vertex="1" parent="6aNFFvRFKAyDfRnZi1tQ-45">
          <mxGeometry x="-0.0728" y="4" relative="1" as="geometry">
            <mxPoint x="1" y="-14" as="offset" />
          </mxGeometry>
        </mxCell>
        <mxCell id="6aNFFvRFKAyDfRnZi1tQ-57" value="" style="endArrow=classic;html=1;rounded=0;" edge="1" parent="1">
          <mxGeometry width="50" height="50" relative="1" as="geometry">
            <mxPoint x="381" y="2069" as="sourcePoint" />
            <mxPoint x="549" y="2069" as="targetPoint" />
          </mxGeometry>
        </mxCell>
        <mxCell id="6aNFFvRFKAyDfRnZi1tQ-58" value="Authenticate request" style="edgeLabel;html=1;align=center;verticalAlign=middle;resizable=0;points=[];" connectable="0" vertex="1" parent="6aNFFvRFKAyDfRnZi1tQ-57">
          <mxGeometry x="-0.0595" y="-2" relative="1" as="geometry">
            <mxPoint x="1" y="-17" as="offset" />
          </mxGeometry>
        </mxCell>
        <mxCell id="6aNFFvRFKAyDfRnZi1tQ-59" value="" style="endArrow=classic;html=1;rounded=0;dashed=1;" edge="1" parent="1">
          <mxGeometry width="50" height="50" relative="1" as="geometry">
            <mxPoint x="551" y="2100" as="sourcePoint" />
            <mxPoint x="383" y="2100" as="targetPoint" />
          </mxGeometry>
        </mxCell>
        <mxCell id="6aNFFvRFKAyDfRnZi1tQ-60" value="Return success" style="edgeLabel;html=1;align=center;verticalAlign=middle;resizable=0;points=[];" connectable="0" vertex="1" parent="6aNFFvRFKAyDfRnZi1tQ-59">
          <mxGeometry x="-0.0595" y="-2" relative="1" as="geometry">
            <mxPoint x="1" y="-17" as="offset" />
          </mxGeometry>
        </mxCell>
        <mxCell id="6aNFFvRFKAyDfRnZi1tQ-61" value="" style="html=1;points=[[0,0,0,0,5],[0,1,0,0,-5],[1,0,0,0,5],[1,1,0,0,-5]];perimeter=orthogonalPerimeter;outlineConnect=0;targetShapes=umlLifeline;portConstraint=eastwest;newEdgeStyle={&quot;curved&quot;:0,&quot;rounded&quot;:0};" vertex="1" parent="1">
          <mxGeometry x="549" y="2063" width="10" height="46" as="geometry" />
        </mxCell>
        <mxCell id="6aNFFvRFKAyDfRnZi1tQ-62" value="Present Confirmation Modal" style="html=1;verticalAlign=bottom;endArrow=open;dashed=1;endSize=8;curved=0;rounded=0;" edge="1" parent="1">
          <mxGeometry relative="1" as="geometry">
            <mxPoint x="209" y="1842" as="sourcePoint" />
            <mxPoint x="51" y="1842" as="targetPoint" />
          </mxGeometry>
        </mxCell>
        <mxCell id="6aNFFvRFKAyDfRnZi1tQ-64" value="ALT" style="shape=umlFrame;whiteSpace=wrap;html=1;pointerEvents=0;" vertex="1" parent="1">
          <mxGeometry x="50" y="1858" width="2217" height="1293" as="geometry" />
        </mxCell>
        <mxCell id="6aNFFvRFKAyDfRnZi1tQ-66" value="[Branch Manager&lt;br&gt;clicks &quot;Submit&quot;]" style="text;html=1;align=center;verticalAlign=middle;resizable=0;points=[];autosize=1;strokeColor=none;fillColor=none;" vertex="1" parent="1">
          <mxGeometry x="55" y="1894" width="111" height="41" as="geometry" />
        </mxCell>
        <mxCell id="6aNFFvRFKAyDfRnZi1tQ-67" value="" style="endArrow=classic;html=1;rounded=0;" edge="1" parent="1">
          <mxGeometry width="50" height="50" relative="1" as="geometry">
            <mxPoint x="50" y="1988" as="sourcePoint" />
            <mxPoint x="201" y="1988" as="targetPoint" />
          </mxGeometry>
        </mxCell>
        <mxCell id="6aNFFvRFKAyDfRnZi1tQ-68" value="Clicks &quot;Submit&quot;" style="edgeLabel;html=1;align=center;verticalAlign=middle;resizable=0;points=[];" connectable="0" vertex="1" parent="6aNFFvRFKAyDfRnZi1tQ-67">
          <mxGeometry x="-0.0728" y="4" relative="1" as="geometry">
            <mxPoint x="1" y="-14" as="offset" />
          </mxGeometry>
        </mxCell>
        <mxCell id="6aNFFvRFKAyDfRnZi1tQ-69" value="" style="endArrow=classic;html=1;rounded=0;entryX=0;entryY=0;entryDx=0;entryDy=5;entryPerimeter=0;" edge="1" parent="1">
          <mxGeometry width="50" height="50" relative="1" as="geometry">
            <mxPoint x="373" y="2136" as="sourcePoint" />
            <mxPoint x="711" y="2136" as="targetPoint" />
          </mxGeometry>
        </mxCell>
        <mxCell id="6aNFFvRFKAyDfRnZi1tQ-70" value="Proxy request" style="edgeLabel;html=1;align=center;verticalAlign=middle;resizable=0;points=[];" connectable="0" vertex="1" parent="6aNFFvRFKAyDfRnZi1tQ-69">
          <mxGeometry x="-0.0595" y="-2" relative="1" as="geometry">
            <mxPoint x="-71" y="-15" as="offset" />
          </mxGeometry>
        </mxCell>
        <mxCell id="6aNFFvRFKAyDfRnZi1tQ-71" value="" style="endArrow=classic;html=1;rounded=0;" edge="1" parent="1">
          <mxGeometry width="50" height="50" relative="1" as="geometry">
            <mxPoint x="717" y="2162" as="sourcePoint" />
            <mxPoint x="881" y="2162" as="targetPoint" />
          </mxGeometry>
        </mxCell>
        <mxCell id="6aNFFvRFKAyDfRnZi1tQ-72" value="TransferStock&lt;br&gt;(StockTransferDto)" style="edgeLabel;html=1;align=center;verticalAlign=middle;resizable=0;points=[];" connectable="0" vertex="1" parent="6aNFFvRFKAyDfRnZi1tQ-71">
          <mxGeometry x="-0.0595" y="-2" relative="1" as="geometry">
            <mxPoint x="7" y="-21" as="offset" />
          </mxGeometry>
        </mxCell>
        <mxCell id="6aNFFvRFKAyDfRnZi1tQ-73" value="Loop" style="shape=umlFrame;whiteSpace=wrap;html=1;pointerEvents=0;" vertex="1" parent="1">
          <mxGeometry x="844" y="2175" width="1380" height="836" as="geometry" />
        </mxCell>
        <mxCell id="6aNFFvRFKAyDfRnZi1tQ-74" value="For each update&lt;br&gt;in StockTransferDto.StockUpdates" style="text;html=1;align=center;verticalAlign=middle;resizable=0;points=[];autosize=1;strokeColor=none;fillColor=none;" vertex="1" parent="1">
          <mxGeometry x="910" y="2181" width="206" height="41" as="geometry" />
        </mxCell>
        <mxCell id="6aNFFvRFKAyDfRnZi1tQ-75" value="" style="endArrow=classic;html=1;rounded=0;" edge="1" parent="1">
          <mxGeometry width="50" height="50" relative="1" as="geometry">
            <mxPoint x="882" y="2320" as="sourcePoint" />
            <mxPoint x="1025" y="2320" as="targetPoint" />
          </mxGeometry>
        </mxCell>
        <mxCell id="6aNFFvRFKAyDfRnZi1tQ-76" value="GetStockRecord&lt;br&gt;(int mediaModelFormatConnectionId,&lt;br&gt;int branchId)" style="edgeLabel;html=1;align=center;verticalAlign=middle;resizable=0;points=[];" connectable="0" vertex="1" parent="6aNFFvRFKAyDfRnZi1tQ-75">
          <mxGeometry x="-0.0595" y="-2" relative="1" as="geometry">
            <mxPoint x="17" y="-39" as="offset" />
          </mxGeometry>
        </mxCell>
        <mxCell id="6aNFFvRFKAyDfRnZi1tQ-78" value="" style="endArrow=classic;html=1;rounded=0;" edge="1" parent="1">
          <mxGeometry width="50" height="50" relative="1" as="geometry">
            <mxPoint x="1033" y="2370" as="sourcePoint" />
            <mxPoint x="2164.3529411764707" y="2370" as="targetPoint" />
          </mxGeometry>
        </mxCell>
        <mxCell id="6aNFFvRFKAyDfRnZi1tQ-79" value="SELECT BranchStockRecords WHERE MediaModelFormatConnectionId= &lt;br&gt;mediaModelFormatConnectionId &amp;amp; BranchId = branchId" style="edgeLabel;html=1;align=center;verticalAlign=middle;resizable=0;points=[];" connectable="0" vertex="1" parent="6aNFFvRFKAyDfRnZi1tQ-78">
          <mxGeometry x="-0.562" y="9" relative="1" as="geometry">
            <mxPoint x="-62" y="-13" as="offset" />
          </mxGeometry>
        </mxCell>
        <mxCell id="6aNFFvRFKAyDfRnZi1tQ-80" value="" style="endArrow=classic;html=1;rounded=0;dashed=1;" edge="1" parent="1">
          <mxGeometry width="50" height="50" relative="1" as="geometry">
            <mxPoint x="2165" y="2411" as="sourcePoint" />
            <mxPoint x="1032" y="2411" as="targetPoint" />
          </mxGeometry>
        </mxCell>
        <mxCell id="6aNFFvRFKAyDfRnZi1tQ-81" value="Return &lt;br&gt;(BranchStockRecord) " style="edgeLabel;html=1;align=center;verticalAlign=middle;resizable=0;points=[];" connectable="0" vertex="1" parent="6aNFFvRFKAyDfRnZi1tQ-80">
          <mxGeometry x="-0.0595" y="-2" relative="1" as="geometry">
            <mxPoint x="-3" y="-17" as="offset" />
          </mxGeometry>
        </mxCell>
        <mxCell id="6aNFFvRFKAyDfRnZi1tQ-82" value="" style="endArrow=classic;html=1;rounded=0;dashed=1;" edge="1" parent="1">
          <mxGeometry width="50" height="50" relative="1" as="geometry">
            <mxPoint x="1030" y="2446" as="sourcePoint" />
            <mxPoint x="881.5" y="2446" as="targetPoint" />
          </mxGeometry>
        </mxCell>
        <mxCell id="6aNFFvRFKAyDfRnZi1tQ-83" value="Return &lt;br&gt;(BranchStockRecord) " style="edgeLabel;html=1;align=center;verticalAlign=middle;resizable=0;points=[];" connectable="0" vertex="1" parent="6aNFFvRFKAyDfRnZi1tQ-82">
          <mxGeometry x="-0.0595" y="-2" relative="1" as="geometry">
            <mxPoint x="-3" y="-17" as="offset" />
          </mxGeometry>
        </mxCell>
        <mxCell id="6aNFFvRFKAyDfRnZi1tQ-84" value="" style="endArrow=classic;html=1;rounded=0;entryX=0;entryY=0;entryDx=0;entryDy=5;entryPerimeter=0;" edge="1" parent="1" target="6aNFFvRFKAyDfRnZi1tQ-127">
          <mxGeometry width="50" height="50" relative="1" as="geometry">
            <mxPoint x="887" y="2508" as="sourcePoint" />
            <mxPoint x="1030" y="2508" as="targetPoint" />
          </mxGeometry>
        </mxCell>
        <mxCell id="6aNFFvRFKAyDfRnZi1tQ-85" value="UpdateStock&lt;br&gt;(BranchStockRecord&lt;br&gt;recordToIncrease)" style="edgeLabel;html=1;align=center;verticalAlign=middle;resizable=0;points=[];" connectable="0" vertex="1" parent="6aNFFvRFKAyDfRnZi1tQ-84">
          <mxGeometry x="-0.0595" y="-2" relative="1" as="geometry">
            <mxPoint x="1" y="-30" as="offset" />
          </mxGeometry>
        </mxCell>
        <mxCell id="6aNFFvRFKAyDfRnZi1tQ-86" value="" style="endArrow=classic;html=1;rounded=0;" edge="1" parent="1">
          <mxGeometry width="50" height="50" relative="1" as="geometry">
            <mxPoint x="1028.32" y="2545" as="sourcePoint" />
            <mxPoint x="2159.672941176471" y="2545" as="targetPoint" />
          </mxGeometry>
        </mxCell>
        <mxCell id="6aNFFvRFKAyDfRnZi1tQ-87" value="UPDATE BranchStockRecords WHERE BranchStockRecord =&lt;br&gt;recordToIncrease&lt;br&gt;&lt;div&gt;&lt;br&gt;&lt;/div&gt;" style="edgeLabel;html=1;align=center;verticalAlign=middle;resizable=0;points=[];" connectable="0" vertex="1" parent="6aNFFvRFKAyDfRnZi1tQ-86">
          <mxGeometry x="-0.562" y="9" relative="1" as="geometry">
            <mxPoint x="-92" y="-18" as="offset" />
          </mxGeometry>
        </mxCell>
        <mxCell id="6aNFFvRFKAyDfRnZi1tQ-88" value="" style="endArrow=classic;html=1;rounded=0;dashed=1;" edge="1" parent="1">
          <mxGeometry width="50" height="50" relative="1" as="geometry">
            <mxPoint x="2160.5" y="2591" as="sourcePoint" />
            <mxPoint x="1027.5" y="2591" as="targetPoint" />
          </mxGeometry>
        </mxCell>
        <mxCell id="6aNFFvRFKAyDfRnZi1tQ-89" value="Return Task Result" style="edgeLabel;html=1;align=center;verticalAlign=middle;resizable=0;points=[];" connectable="0" vertex="1" parent="6aNFFvRFKAyDfRnZi1tQ-88">
          <mxGeometry x="-0.0595" y="-2" relative="1" as="geometry">
            <mxPoint x="-3" y="-17" as="offset" />
          </mxGeometry>
        </mxCell>
        <mxCell id="6aNFFvRFKAyDfRnZi1tQ-90" value="" style="endArrow=classic;html=1;rounded=0;dashed=1;" edge="1" parent="1" source="6aNFFvRFKAyDfRnZi1tQ-127">
          <mxGeometry width="50" height="50" relative="1" as="geometry">
            <mxPoint x="1032.5" y="2625" as="sourcePoint" />
            <mxPoint x="884" y="2625" as="targetPoint" />
          </mxGeometry>
        </mxCell>
        <mxCell id="6aNFFvRFKAyDfRnZi1tQ-92" value="" style="endArrow=classic;html=1;rounded=0;" edge="1" parent="1">
          <mxGeometry width="50" height="50" relative="1" as="geometry">
            <mxPoint x="876.5" y="2687" as="sourcePoint" />
            <mxPoint x="1019.5" y="2687" as="targetPoint" />
          </mxGeometry>
        </mxCell>
        <mxCell id="6aNFFvRFKAyDfRnZi1tQ-93" value="GetStockRecord&lt;br&gt;(int mediaModelFormatConnectionId,&lt;br&gt;int branchId)" style="edgeLabel;html=1;align=center;verticalAlign=middle;resizable=0;points=[];" connectable="0" vertex="1" parent="6aNFFvRFKAyDfRnZi1tQ-92">
          <mxGeometry x="-0.0595" y="-2" relative="1" as="geometry">
            <mxPoint x="30" y="-31" as="offset" />
          </mxGeometry>
        </mxCell>
        <mxCell id="6aNFFvRFKAyDfRnZi1tQ-94" value="" style="endArrow=classic;html=1;rounded=0;" edge="1" parent="1" source="6aNFFvRFKAyDfRnZi1tQ-131">
          <mxGeometry width="50" height="50" relative="1" as="geometry">
            <mxPoint x="1027.5" y="2737" as="sourcePoint" />
            <mxPoint x="2158.8529411764707" y="2737" as="targetPoint" />
          </mxGeometry>
        </mxCell>
        <mxCell id="6aNFFvRFKAyDfRnZi1tQ-96" value="" style="endArrow=classic;html=1;rounded=0;dashed=1;" edge="1" parent="1">
          <mxGeometry width="50" height="50" relative="1" as="geometry">
            <mxPoint x="2159.5" y="2778" as="sourcePoint" />
            <mxPoint x="1026.5" y="2778" as="targetPoint" />
          </mxGeometry>
        </mxCell>
        <mxCell id="6aNFFvRFKAyDfRnZi1tQ-97" value="Return &lt;br&gt;(BranchStockRecord) " style="edgeLabel;html=1;align=center;verticalAlign=middle;resizable=0;points=[];" connectable="0" vertex="1" parent="6aNFFvRFKAyDfRnZi1tQ-96">
          <mxGeometry x="-0.0595" y="-2" relative="1" as="geometry">
            <mxPoint x="-3" y="-17" as="offset" />
          </mxGeometry>
        </mxCell>
        <mxCell id="6aNFFvRFKAyDfRnZi1tQ-98" value="" style="endArrow=classic;html=1;rounded=0;dashed=1;" edge="1" parent="1" target="6aNFFvRFKAyDfRnZi1tQ-134">
          <mxGeometry width="50" height="50" relative="1" as="geometry">
            <mxPoint x="1024.5" y="2813" as="sourcePoint" />
            <mxPoint x="876" y="2813" as="targetPoint" />
          </mxGeometry>
        </mxCell>
        <mxCell id="6aNFFvRFKAyDfRnZi1tQ-99" value="Return &lt;br&gt;(BranchStockRecord) " style="edgeLabel;html=1;align=center;verticalAlign=middle;resizable=0;points=[];" connectable="0" vertex="1" parent="6aNFFvRFKAyDfRnZi1tQ-98">
          <mxGeometry x="-0.0595" y="-2" relative="1" as="geometry">
            <mxPoint x="-3" y="-17" as="offset" />
          </mxGeometry>
        </mxCell>
        <mxCell id="6aNFFvRFKAyDfRnZi1tQ-100" value="" style="endArrow=classic;html=1;rounded=0;" edge="1" parent="1">
          <mxGeometry width="50" height="50" relative="1" as="geometry">
            <mxPoint x="881.5" y="2875" as="sourcePoint" />
            <mxPoint x="1024.5" y="2875" as="targetPoint" />
          </mxGeometry>
        </mxCell>
        <mxCell id="6aNFFvRFKAyDfRnZi1tQ-101" value="UpdateStock&lt;br&gt;(BranchStockRecord&lt;br&gt;recordToReduce)" style="edgeLabel;html=1;align=center;verticalAlign=middle;resizable=0;points=[];" connectable="0" vertex="1" parent="6aNFFvRFKAyDfRnZi1tQ-100">
          <mxGeometry x="-0.0595" y="-2" relative="1" as="geometry">
            <mxPoint x="1" y="-30" as="offset" />
          </mxGeometry>
        </mxCell>
        <mxCell id="6aNFFvRFKAyDfRnZi1tQ-102" value="" style="endArrow=classic;html=1;rounded=0;" edge="1" parent="1" target="6aNFFvRFKAyDfRnZi1tQ-125">
          <mxGeometry width="50" height="50" relative="1" as="geometry">
            <mxPoint x="1037" y="2912" as="sourcePoint" />
            <mxPoint x="2154.172941176471" y="2912" as="targetPoint" />
          </mxGeometry>
        </mxCell>
        <mxCell id="6aNFFvRFKAyDfRnZi1tQ-103" value="UPDATE BranchStockRecords WHERE BranchStockRecord =&lt;br&gt;recordToReduce&lt;br&gt;&lt;div&gt;&lt;br&gt;&lt;/div&gt;" style="edgeLabel;html=1;align=center;verticalAlign=middle;resizable=0;points=[];" connectable="0" vertex="1" parent="6aNFFvRFKAyDfRnZi1tQ-102">
          <mxGeometry x="-0.562" y="9" relative="1" as="geometry">
            <mxPoint x="-97" y="-18" as="offset" />
          </mxGeometry>
        </mxCell>
        <mxCell id="6aNFFvRFKAyDfRnZi1tQ-104" value="" style="endArrow=classic;html=1;rounded=0;dashed=1;" edge="1" parent="1" source="6aNFFvRFKAyDfRnZi1tQ-135">
          <mxGeometry width="50" height="50" relative="1" as="geometry">
            <mxPoint x="2155" y="2958" as="sourcePoint" />
            <mxPoint x="1022" y="2958" as="targetPoint" />
          </mxGeometry>
        </mxCell>
        <mxCell id="6aNFFvRFKAyDfRnZi1tQ-106" value="" style="endArrow=classic;html=1;rounded=0;dashed=1;entryX=1;entryY=1;entryDx=0;entryDy=-5;entryPerimeter=0;" edge="1" parent="1" target="6aNFFvRFKAyDfRnZi1tQ-134">
          <mxGeometry width="50" height="50" relative="1" as="geometry">
            <mxPoint x="1027" y="2992" as="sourcePoint" />
            <mxPoint x="878.5" y="2992" as="targetPoint" />
          </mxGeometry>
        </mxCell>
        <mxCell id="6aNFFvRFKAyDfRnZi1tQ-107" value="Return Task Result" style="edgeLabel;html=1;align=center;verticalAlign=middle;resizable=0;points=[];" connectable="0" vertex="1" parent="6aNFFvRFKAyDfRnZi1tQ-106">
          <mxGeometry x="-0.0595" y="-2" relative="1" as="geometry">
            <mxPoint x="-3" y="-17" as="offset" />
          </mxGeometry>
        </mxCell>
        <mxCell id="6aNFFvRFKAyDfRnZi1tQ-108" value="" style="endArrow=classic;html=1;rounded=0;dashed=1;" edge="1" parent="1" target="6aNFFvRFKAyDfRnZi1tQ-138">
          <mxGeometry width="50" height="50" relative="1" as="geometry">
            <mxPoint x="877" y="3046" as="sourcePoint" />
            <mxPoint x="714" y="3046" as="targetPoint" />
          </mxGeometry>
        </mxCell>
        <mxCell id="6aNFFvRFKAyDfRnZi1tQ-109" value="Return Task Result" style="edgeLabel;html=1;align=center;verticalAlign=middle;resizable=0;points=[];" connectable="0" vertex="1" parent="6aNFFvRFKAyDfRnZi1tQ-108">
          <mxGeometry x="-0.0595" y="-2" relative="1" as="geometry">
            <mxPoint x="-3" y="-17" as="offset" />
          </mxGeometry>
        </mxCell>
        <mxCell id="6aNFFvRFKAyDfRnZi1tQ-110" value="" style="endArrow=classic;html=1;rounded=0;dashed=1;" edge="1" parent="1" target="6aNFFvRFKAyDfRnZi1tQ-140">
          <mxGeometry width="50" height="50" relative="1" as="geometry">
            <mxPoint x="709" y="3069" as="sourcePoint" />
            <mxPoint x="371" y="3071" as="targetPoint" />
          </mxGeometry>
        </mxCell>
        <mxCell id="6aNFFvRFKAyDfRnZi1tQ-111" value="Return Task Result" style="edgeLabel;html=1;align=center;verticalAlign=middle;resizable=0;points=[];" connectable="0" vertex="1" parent="6aNFFvRFKAyDfRnZi1tQ-110">
          <mxGeometry x="-0.0595" y="-2" relative="1" as="geometry">
            <mxPoint x="-3" y="-17" as="offset" />
          </mxGeometry>
        </mxCell>
        <mxCell id="6aNFFvRFKAyDfRnZi1tQ-112" value="" style="endArrow=classic;html=1;rounded=0;dashed=1;" edge="1" parent="1">
          <mxGeometry width="50" height="50" relative="1" as="geometry">
            <mxPoint x="364" y="3098" as="sourcePoint" />
            <mxPoint x="221" y="3098" as="targetPoint" />
          </mxGeometry>
        </mxCell>
        <mxCell id="6aNFFvRFKAyDfRnZi1tQ-113" value="Return Task Result" style="edgeLabel;html=1;align=center;verticalAlign=middle;resizable=0;points=[];" connectable="0" vertex="1" parent="6aNFFvRFKAyDfRnZi1tQ-112">
          <mxGeometry x="-0.0595" y="-2" relative="1" as="geometry">
            <mxPoint x="-3" y="-17" as="offset" />
          </mxGeometry>
        </mxCell>
        <mxCell id="6aNFFvRFKAyDfRnZi1tQ-114" value="" style="endArrow=classic;html=1;rounded=0;dashed=1;" edge="1" parent="1">
          <mxGeometry width="50" height="50" relative="1" as="geometry">
            <mxPoint x="205" y="3118" as="sourcePoint" />
            <mxPoint x="51" y="3120" as="targetPoint" />
          </mxGeometry>
        </mxCell>
        <mxCell id="6aNFFvRFKAyDfRnZi1tQ-115" value="Display Success" style="edgeLabel;html=1;align=center;verticalAlign=middle;resizable=0;points=[];" connectable="0" vertex="1" parent="6aNFFvRFKAyDfRnZi1tQ-114">
          <mxGeometry x="-0.0595" y="-2" relative="1" as="geometry">
            <mxPoint x="-3" y="-17" as="offset" />
          </mxGeometry>
        </mxCell>
        <mxCell id="6aNFFvRFKAyDfRnZi1tQ-116" value="ALT" style="shape=umlFrame;whiteSpace=wrap;html=1;pointerEvents=0;" vertex="1" parent="1">
          <mxGeometry x="50" y="3151" width="2218" height="243" as="geometry" />
        </mxCell>
        <mxCell id="6aNFFvRFKAyDfRnZi1tQ-117" value="Branch Manager&lt;br&gt;clicks &quot;Cancel&quot;" style="text;html=1;align=center;verticalAlign=middle;resizable=0;points=[];autosize=1;strokeColor=none;fillColor=none;" vertex="1" parent="1">
          <mxGeometry x="52" y="3187" width="108" height="41" as="geometry" />
        </mxCell>
        <mxCell id="6aNFFvRFKAyDfRnZi1tQ-118" value="" style="endArrow=classic;html=1;rounded=0;" edge="1" parent="1">
          <mxGeometry width="50" height="50" relative="1" as="geometry">
            <mxPoint x="52" y="3252" as="sourcePoint" />
            <mxPoint x="203" y="3252" as="targetPoint" />
          </mxGeometry>
        </mxCell>
        <mxCell id="6aNFFvRFKAyDfRnZi1tQ-119" value="Clicks &quot;Cancel&quot;" style="edgeLabel;html=1;align=center;verticalAlign=middle;resizable=0;points=[];" connectable="0" vertex="1" parent="6aNFFvRFKAyDfRnZi1tQ-118">
          <mxGeometry x="-0.0728" y="4" relative="1" as="geometry">
            <mxPoint x="1" y="-14" as="offset" />
          </mxGeometry>
        </mxCell>
        <mxCell id="6aNFFvRFKAyDfRnZi1tQ-120" value="" style="endArrow=classic;html=1;rounded=0;dashed=1;" edge="1" parent="1">
          <mxGeometry width="50" height="50" relative="1" as="geometry">
            <mxPoint x="204" y="3308" as="sourcePoint" />
            <mxPoint x="50" y="3310" as="targetPoint" />
          </mxGeometry>
        </mxCell>
        <mxCell id="6aNFFvRFKAyDfRnZi1tQ-121" value="Closes modal and&lt;br&gt;returns Branch Manger to&lt;br&gt;forms" style="edgeLabel;html=1;align=center;verticalAlign=middle;resizable=0;points=[];" connectable="0" vertex="1" parent="6aNFFvRFKAyDfRnZi1tQ-120">
          <mxGeometry x="-0.0595" y="-2" relative="1" as="geometry">
            <mxPoint x="-3" y="-22" as="offset" />
          </mxGeometry>
        </mxCell>
        <mxCell id="6aNFFvRFKAyDfRnZi1tQ-122" value="" style="html=1;points=[[0,0,0,0,5],[0,1,0,0,-5],[1,0,0,0,5],[1,1,0,0,-5]];perimeter=orthogonalPerimeter;outlineConnect=0;targetShapes=umlLifeline;portConstraint=eastwest;newEdgeStyle={&quot;curved&quot;:0,&quot;rounded&quot;:0};" vertex="1" parent="1">
          <mxGeometry x="2171" y="2348" width="10" height="80" as="geometry" />
        </mxCell>
        <mxCell id="6aNFFvRFKAyDfRnZi1tQ-123" value="" style="html=1;points=[[0,0,0,0,5],[0,1,0,0,-5],[1,0,0,0,5],[1,1,0,0,-5]];perimeter=orthogonalPerimeter;outlineConnect=0;targetShapes=umlLifeline;portConstraint=eastwest;newEdgeStyle={&quot;curved&quot;:0,&quot;rounded&quot;:0};" vertex="1" parent="1">
          <mxGeometry x="2171" y="2530" width="10" height="80" as="geometry" />
        </mxCell>
        <mxCell id="6aNFFvRFKAyDfRnZi1tQ-124" value="" style="html=1;points=[[0,0,0,0,5],[0,1,0,0,-5],[1,0,0,0,5],[1,1,0,0,-5]];perimeter=orthogonalPerimeter;outlineConnect=0;targetShapes=umlLifeline;portConstraint=eastwest;newEdgeStyle={&quot;curved&quot;:0,&quot;rounded&quot;:0};" vertex="1" parent="1">
          <mxGeometry x="2171" y="2719" width="10" height="80" as="geometry" />
        </mxCell>
        <mxCell id="6aNFFvRFKAyDfRnZi1tQ-125" value="" style="html=1;points=[[0,0,0,0,5],[0,1,0,0,-5],[1,0,0,0,5],[1,1,0,0,-5]];perimeter=orthogonalPerimeter;outlineConnect=0;targetShapes=umlLifeline;portConstraint=eastwest;newEdgeStyle={&quot;curved&quot;:0,&quot;rounded&quot;:0};" vertex="1" parent="1">
          <mxGeometry x="2171" y="2896" width="10" height="80" as="geometry" />
        </mxCell>
        <mxCell id="6aNFFvRFKAyDfRnZi1tQ-126" value="" style="html=1;points=[[0,0,0,0,5],[0,1,0,0,-5],[1,0,0,0,5],[1,1,0,0,-5]];perimeter=orthogonalPerimeter;outlineConnect=0;targetShapes=umlLifeline;portConstraint=eastwest;newEdgeStyle={&quot;curved&quot;:0,&quot;rounded&quot;:0};" vertex="1" parent="1">
          <mxGeometry x="1025" y="2313" width="10" height="146" as="geometry" />
        </mxCell>
        <mxCell id="6aNFFvRFKAyDfRnZi1tQ-128" value="" style="endArrow=classic;html=1;rounded=0;dashed=1;" edge="1" parent="1" target="6aNFFvRFKAyDfRnZi1tQ-127">
          <mxGeometry width="50" height="50" relative="1" as="geometry">
            <mxPoint x="1032.5" y="2625" as="sourcePoint" />
            <mxPoint x="884" y="2625" as="targetPoint" />
          </mxGeometry>
        </mxCell>
        <mxCell id="6aNFFvRFKAyDfRnZi1tQ-129" value="Return Task Result" style="edgeLabel;html=1;align=center;verticalAlign=middle;resizable=0;points=[];" connectable="0" vertex="1" parent="6aNFFvRFKAyDfRnZi1tQ-128">
          <mxGeometry x="-0.0595" y="-2" relative="1" as="geometry">
            <mxPoint x="-71" y="-25" as="offset" />
          </mxGeometry>
        </mxCell>
        <mxCell id="6aNFFvRFKAyDfRnZi1tQ-127" value="" style="html=1;points=[[0,0,0,0,5],[0,1,0,0,-5],[1,0,0,0,5],[1,1,0,0,-5]];perimeter=orthogonalPerimeter;outlineConnect=0;targetShapes=umlLifeline;portConstraint=eastwest;newEdgeStyle={&quot;curved&quot;:0,&quot;rounded&quot;:0};" vertex="1" parent="1">
          <mxGeometry x="1025" y="2505" width="10" height="124" as="geometry" />
        </mxCell>
        <mxCell id="6aNFFvRFKAyDfRnZi1tQ-132" value="" style="endArrow=classic;html=1;rounded=0;" edge="1" parent="1" target="6aNFFvRFKAyDfRnZi1tQ-131">
          <mxGeometry width="50" height="50" relative="1" as="geometry">
            <mxPoint x="1027.5" y="2737" as="sourcePoint" />
            <mxPoint x="2158.8529411764707" y="2737" as="targetPoint" />
          </mxGeometry>
        </mxCell>
        <mxCell id="6aNFFvRFKAyDfRnZi1tQ-133" value="SELECT BranchStockRecords WHERE MediaModelFormatConnectionId= &lt;br&gt;mediaModelFormatConnectionId &amp;amp; BranchId = branchId" style="edgeLabel;html=1;align=center;verticalAlign=middle;resizable=0;points=[];" connectable="0" vertex="1" parent="6aNFFvRFKAyDfRnZi1tQ-132">
          <mxGeometry x="-0.562" y="9" relative="1" as="geometry">
            <mxPoint x="194" y="-12" as="offset" />
          </mxGeometry>
        </mxCell>
        <mxCell id="6aNFFvRFKAyDfRnZi1tQ-131" value="" style="html=1;points=[[0,0,0,0,5],[0,1,0,0,-5],[1,0,0,0,5],[1,1,0,0,-5]];perimeter=orthogonalPerimeter;outlineConnect=0;targetShapes=umlLifeline;portConstraint=eastwest;newEdgeStyle={&quot;curved&quot;:0,&quot;rounded&quot;:0};" vertex="1" parent="1">
          <mxGeometry x="1021" y="2684" width="10" height="138" as="geometry" />
        </mxCell>
        <mxCell id="6aNFFvRFKAyDfRnZi1tQ-134" value="" style="html=1;points=[[0,0,0,0,5],[0,1,0,0,-5],[1,0,0,0,5],[1,1,0,0,-5]];perimeter=orthogonalPerimeter;outlineConnect=0;targetShapes=umlLifeline;portConstraint=eastwest;newEdgeStyle={&quot;curved&quot;:0,&quot;rounded&quot;:0};" vertex="1" parent="1">
          <mxGeometry x="874" y="2307" width="10" height="692" as="geometry" />
        </mxCell>
        <mxCell id="6aNFFvRFKAyDfRnZi1tQ-136" value="" style="endArrow=classic;html=1;rounded=0;dashed=1;" edge="1" parent="1">
          <mxGeometry width="50" height="50" relative="1" as="geometry">
            <mxPoint x="2171" y="2966" as="sourcePoint" />
            <mxPoint x="1031" y="2966" as="targetPoint" />
          </mxGeometry>
        </mxCell>
        <mxCell id="6aNFFvRFKAyDfRnZi1tQ-137" value="Return Task Result" style="edgeLabel;html=1;align=center;verticalAlign=middle;resizable=0;points=[];" connectable="0" vertex="1" parent="6aNFFvRFKAyDfRnZi1tQ-136">
          <mxGeometry x="-0.0595" y="-2" relative="1" as="geometry">
            <mxPoint x="-3" y="-17" as="offset" />
          </mxGeometry>
        </mxCell>
        <mxCell id="6aNFFvRFKAyDfRnZi1tQ-135" value="" style="html=1;points=[[0,0,0,0,5],[0,1,0,0,-5],[1,0,0,0,5],[1,1,0,0,-5]];perimeter=orthogonalPerimeter;outlineConnect=0;targetShapes=umlLifeline;portConstraint=eastwest;newEdgeStyle={&quot;curved&quot;:0,&quot;rounded&quot;:0};" vertex="1" parent="1">
          <mxGeometry x="1021" y="2865" width="10" height="138" as="geometry" />
        </mxCell>
        <mxCell id="6aNFFvRFKAyDfRnZi1tQ-139" value="" style="endArrow=none;dashed=1;html=1;rounded=0;" edge="1" parent="1" target="6aNFFvRFKAyDfRnZi1tQ-138">
          <mxGeometry width="50" height="50" relative="1" as="geometry">
            <mxPoint x="710" y="3475" as="sourcePoint" />
            <mxPoint x="722" y="91" as="targetPoint" />
          </mxGeometry>
        </mxCell>
        <mxCell id="6aNFFvRFKAyDfRnZi1tQ-138" value="" style="html=1;points=[[0,0,0,0,5],[0,1,0,0,-5],[1,0,0,0,5],[1,1,0,0,-5]];perimeter=orthogonalPerimeter;outlineConnect=0;targetShapes=umlLifeline;portConstraint=eastwest;newEdgeStyle={&quot;curved&quot;:0,&quot;rounded&quot;:0};" vertex="1" parent="1">
          <mxGeometry x="711" y="2128" width="10" height="950" as="geometry" />
        </mxCell>
        <mxCell id="6aNFFvRFKAyDfRnZi1tQ-141" value="" style="endArrow=none;dashed=1;html=1;rounded=0;" edge="1" parent="1" target="6aNFFvRFKAyDfRnZi1tQ-140">
          <mxGeometry width="50" height="50" relative="1" as="geometry">
            <mxPoint x="366" y="3487" as="sourcePoint" />
            <mxPoint x="373" y="1642" as="targetPoint" />
          </mxGeometry>
        </mxCell>
        <mxCell id="6aNFFvRFKAyDfRnZi1tQ-140" value="" style="html=1;points=[[0,0,0,0,5],[0,1,0,0,-5],[1,0,0,0,5],[1,1,0,0,-5]];perimeter=orthogonalPerimeter;outlineConnect=0;targetShapes=umlLifeline;portConstraint=eastwest;newEdgeStyle={&quot;curved&quot;:0,&quot;rounded&quot;:0};" vertex="1" parent="1">
          <mxGeometry x="368" y="2031" width="10" height="1069" as="geometry" />
        </mxCell>
        <mxCell id="Lq1n1FRXxZybf1FSX24i-1" value="" style="endArrow=classic;html=1;rounded=0;" edge="1" parent="1">
          <mxGeometry width="50" height="50" relative="1" as="geometry">
            <mxPoint x="56" y="950" as="sourcePoint" />
            <mxPoint x="209" y="950" as="targetPoint" />
          </mxGeometry>
        </mxCell>
        <mxCell id="Lq1n1FRXxZybf1FSX24i-2" value="Selects &quot;Transfer&quot; option" style="edgeLabel;html=1;align=center;verticalAlign=middle;resizable=0;points=[];" connectable="0" vertex="1" parent="Lq1n1FRXxZybf1FSX24i-1">
          <mxGeometry x="0.2814" y="2" relative="1" as="geometry">
            <mxPoint x="-25" y="-8" as="offset" />
          </mxGeometry>
        </mxCell>
        <mxCell id="Lq1n1FRXxZybf1FSX24i-4" value="" style="endArrow=classic;html=1;rounded=0;dashed=1;" edge="1" parent="1">
          <mxGeometry width="50" height="50" relative="1" as="geometry">
            <mxPoint x="206" y="605" as="sourcePoint" />
            <mxPoint x="52" y="605" as="targetPoint" />
          </mxGeometry>
        </mxCell>
        <mxCell id="Lq1n1FRXxZybf1FSX24i-5" value="&lt;div&gt;Displays&amp;nbsp;&lt;/div&gt;&lt;div&gt;/StockControlMediaView/{id}&lt;/div&gt;" style="edgeLabel;html=1;align=center;verticalAlign=middle;resizable=0;points=[];" connectable="0" vertex="1" parent="Lq1n1FRXxZybf1FSX24i-4">
          <mxGeometry x="-0.0595" y="-2" relative="1" as="geometry">
            <mxPoint x="-4" y="-17" as="offset" />
          </mxGeometry>
        </mxCell>
      </root>
    </mxGraphModel>
  </diagram>
</mxfile>
